<?xml version="1.0" encoding="utf-8" standalone="no"?>
<!DOCTYPE svg PUBLIC "-//W3C//DTD SVG 1.1//EN"
  "http://www.w3.org/Graphics/SVG/1.1/DTD/svg11.dtd">
<svg xmlns:xlink="http://www.w3.org/1999/xlink" width="684pt" height="434.731562pt" viewBox="0 0 684 434.731562" xmlns="http://www.w3.org/2000/svg" version="1.1">
 <metadata>
  <rdf:RDF xmlns:dc="http://purl.org/dc/elements/1.1/" xmlns:cc="http://creativecommons.org/ns#" xmlns:rdf="http://www.w3.org/1999/02/22-rdf-syntax-ns#">
   <cc:Work>
    <dc:type rdf:resource="http://purl.org/dc/dcmitype/StillImage"/>
    <dc:date>2025-09-03T08:59:27.379037</dc:date>
    <dc:format>image/svg+xml</dc:format>
    <dc:creator>
     <cc:Agent>
      <dc:title>Matplotlib v3.6.3, https://matplotlib.org/</dc:title>
     </cc:Agent>
    </dc:creator>
   </cc:Work>
  </rdf:RDF>
 </metadata>
 <defs>
  <style type="text/css">*{stroke-linejoin: round; stroke-linecap: butt}</style>
 </defs>
 <g id="figure_1">
  <g id="patch_1">
   <path d="M 0 434.731562 
L 684 434.731562 
L 684 0 
L 0 0 
z
" style="fill: #ffffff"/>
  </g>
  <g id="axes_1">
   <g id="patch_2">
    <path d="M 7.2 411.917812 
L 676.8 411.917812 
L 676.8 23.837812 
L 7.2 23.837812 
z
" style="fill: #ffffff"/>
   </g>
   <g id="LineCollection_1">
    <path d="M 65.305785 378.241449 
L 423.380651 194.968722 
" clip-path="url(#p51bf3f3e29)" style="fill: none; stroke: #808080; stroke-width: 4.5"/>
    <path d="M 254.108896 332.423267 
L 527.547885 103.332358 
" clip-path="url(#p51bf3f3e29)" style="fill: none; stroke: #808080; stroke-width: 3"/>
    <path d="M 527.547885 103.332358 
L 328.979096 240.786903 
" clip-path="url(#p51bf3f3e29)" style="fill: none; stroke: #808080; stroke-width: 3"/>
    <path d="M 527.547885 103.332358 
L 618.694215 57.514176 
" clip-path="url(#p51bf3f3e29)" style="fill: none; stroke: #808080; stroke-width: 4.5"/>
    <path d="M 315.958192 286.605085 
L 328.979096 240.786903 
" clip-path="url(#p51bf3f3e29)" style="fill: none; stroke: #808080; stroke-width: 4.5"/>
    <path d="M 449.42246 149.15054 
L 618.694215 57.514176 
" clip-path="url(#p51bf3f3e29)" style="fill: none; stroke: #808080; stroke-width: 3"/>
   </g>
   <g id="text_1">
    <g id="patch_3">
     <path d="M 217.618382 306.44794 
L 276.068308 276.531633 
Q 277.937677 275.574838 276.980882 273.705468 
L 273.89422 267.674805 
Q 272.937424 265.805435 271.068054 266.762231 
L 212.618129 296.678537 
Q 210.748759 297.635333 211.705555 299.504702 
L 214.792217 305.535366 
Q 215.749013 307.404735 217.618382 306.44794 
z
" clip-path="url(#p51bf3f3e29)" style="fill: #ffffff; stroke: #ffffff; stroke-linejoin: miter"/>
    </g>
    <g clip-path="url(#p51bf3f3e29)">
     <!-- Freedom, Abolition -->
     <g transform="translate(215.998308 303.282669) rotate(-27.104636) scale(0.07 -0.07)">
      <defs>
       <path id="DejaVuSans-46" d="M 628 4666 
L 3309 4666 
L 3309 4134 
L 1259 4134 
L 1259 2759 
L 3109 2759 
L 3109 2228 
L 1259 2228 
L 1259 0 
L 628 0 
L 628 4666 
z
" transform="scale(0.015625)"/>
       <path id="DejaVuSans-72" d="M 2631 2963 
Q 2534 3019 2420 3045 
Q 2306 3072 2169 3072 
Q 1681 3072 1420 2755 
Q 1159 2438 1159 1844 
L 1159 0 
L 581 0 
L 581 3500 
L 1159 3500 
L 1159 2956 
Q 1341 3275 1631 3429 
Q 1922 3584 2338 3584 
Q 2397 3584 2469 3576 
Q 2541 3569 2628 3553 
L 2631 2963 
z
" transform="scale(0.015625)"/>
       <path id="DejaVuSans-65" d="M 3597 1894 
L 3597 1613 
L 953 1613 
Q 991 1019 1311 708 
Q 1631 397 2203 397 
Q 2534 397 2845 478 
Q 3156 559 3463 722 
L 3463 178 
Q 3153 47 2828 -22 
Q 2503 -91 2169 -91 
Q 1331 -91 842 396 
Q 353 884 353 1716 
Q 353 2575 817 3079 
Q 1281 3584 2069 3584 
Q 2775 3584 3186 3129 
Q 3597 2675 3597 1894 
z
M 3022 2063 
Q 3016 2534 2758 2815 
Q 2500 3097 2075 3097 
Q 1594 3097 1305 2825 
Q 1016 2553 972 2059 
L 3022 2063 
z
" transform="scale(0.015625)"/>
       <path id="DejaVuSans-64" d="M 2906 2969 
L 2906 4863 
L 3481 4863 
L 3481 0 
L 2906 0 
L 2906 525 
Q 2725 213 2448 61 
Q 2172 -91 1784 -91 
Q 1150 -91 751 415 
Q 353 922 353 1747 
Q 353 2572 751 3078 
Q 1150 3584 1784 3584 
Q 2172 3584 2448 3432 
Q 2725 3281 2906 2969 
z
M 947 1747 
Q 947 1113 1208 752 
Q 1469 391 1925 391 
Q 2381 391 2643 752 
Q 2906 1113 2906 1747 
Q 2906 2381 2643 2742 
Q 2381 3103 1925 3103 
Q 1469 3103 1208 2742 
Q 947 2381 947 1747 
z
" transform="scale(0.015625)"/>
       <path id="DejaVuSans-6f" d="M 1959 3097 
Q 1497 3097 1228 2736 
Q 959 2375 959 1747 
Q 959 1119 1226 758 
Q 1494 397 1959 397 
Q 2419 397 2687 759 
Q 2956 1122 2956 1747 
Q 2956 2369 2687 2733 
Q 2419 3097 1959 3097 
z
M 1959 3584 
Q 2709 3584 3137 3096 
Q 3566 2609 3566 1747 
Q 3566 888 3137 398 
Q 2709 -91 1959 -91 
Q 1206 -91 779 398 
Q 353 888 353 1747 
Q 353 2609 779 3096 
Q 1206 3584 1959 3584 
z
" transform="scale(0.015625)"/>
       <path id="DejaVuSans-6d" d="M 3328 2828 
Q 3544 3216 3844 3400 
Q 4144 3584 4550 3584 
Q 5097 3584 5394 3201 
Q 5691 2819 5691 2113 
L 5691 0 
L 5113 0 
L 5113 2094 
Q 5113 2597 4934 2840 
Q 4756 3084 4391 3084 
Q 3944 3084 3684 2787 
Q 3425 2491 3425 1978 
L 3425 0 
L 2847 0 
L 2847 2094 
Q 2847 2600 2669 2842 
Q 2491 3084 2119 3084 
Q 1678 3084 1418 2786 
Q 1159 2488 1159 1978 
L 1159 0 
L 581 0 
L 581 3500 
L 1159 3500 
L 1159 2956 
Q 1356 3278 1631 3431 
Q 1906 3584 2284 3584 
Q 2666 3584 2933 3390 
Q 3200 3197 3328 2828 
z
" transform="scale(0.015625)"/>
       <path id="DejaVuSans-2c" d="M 750 794 
L 1409 794 
L 1409 256 
L 897 -744 
L 494 -744 
L 750 256 
L 750 794 
z
" transform="scale(0.015625)"/>
       <path id="DejaVuSans-20" transform="scale(0.015625)"/>
       <path id="DejaVuSans-41" d="M 2188 4044 
L 1331 1722 
L 3047 1722 
L 2188 4044 
z
M 1831 4666 
L 2547 4666 
L 4325 0 
L 3669 0 
L 3244 1197 
L 1141 1197 
L 716 0 
L 50 0 
L 1831 4666 
z
" transform="scale(0.015625)"/>
       <path id="DejaVuSans-62" d="M 3116 1747 
Q 3116 2381 2855 2742 
Q 2594 3103 2138 3103 
Q 1681 3103 1420 2742 
Q 1159 2381 1159 1747 
Q 1159 1113 1420 752 
Q 1681 391 2138 391 
Q 2594 391 2855 752 
Q 3116 1113 3116 1747 
z
M 1159 2969 
Q 1341 3281 1617 3432 
Q 1894 3584 2278 3584 
Q 2916 3584 3314 3078 
Q 3713 2572 3713 1747 
Q 3713 922 3314 415 
Q 2916 -91 2278 -91 
Q 1894 -91 1617 61 
Q 1341 213 1159 525 
L 1159 0 
L 581 0 
L 581 4863 
L 1159 4863 
L 1159 2969 
z
" transform="scale(0.015625)"/>
       <path id="DejaVuSans-6c" d="M 603 4863 
L 1178 4863 
L 1178 0 
L 603 0 
L 603 4863 
z
" transform="scale(0.015625)"/>
       <path id="DejaVuSans-69" d="M 603 3500 
L 1178 3500 
L 1178 0 
L 603 0 
L 603 3500 
z
M 603 4863 
L 1178 4863 
L 1178 4134 
L 603 4134 
L 603 4863 
z
" transform="scale(0.015625)"/>
       <path id="DejaVuSans-74" d="M 1172 4494 
L 1172 3500 
L 2356 3500 
L 2356 3053 
L 1172 3053 
L 1172 1153 
Q 1172 725 1289 603 
Q 1406 481 1766 481 
L 2356 481 
L 2356 0 
L 1766 0 
Q 1100 0 847 248 
Q 594 497 594 1153 
L 594 3053 
L 172 3053 
L 172 3500 
L 594 3500 
L 594 4494 
L 1172 4494 
z
" transform="scale(0.015625)"/>
       <path id="DejaVuSans-6e" d="M 3513 2113 
L 3513 0 
L 2938 0 
L 2938 2094 
Q 2938 2591 2744 2837 
Q 2550 3084 2163 3084 
Q 1697 3084 1428 2787 
Q 1159 2491 1159 1978 
L 1159 0 
L 581 0 
L 581 3500 
L 1159 3500 
L 1159 2956 
Q 1366 3272 1645 3428 
Q 1925 3584 2291 3584 
Q 2894 3584 3203 3211 
Q 3513 2838 3513 2113 
z
" transform="scale(0.015625)"/>
      </defs>
      <use xlink:href="#DejaVuSans-46"/>
      <use xlink:href="#DejaVuSans-72" x="50.269531"/>
      <use xlink:href="#DejaVuSans-65" x="89.132812"/>
      <use xlink:href="#DejaVuSans-65" x="150.65625"/>
      <use xlink:href="#DejaVuSans-64" x="212.179688"/>
      <use xlink:href="#DejaVuSans-6f" x="275.65625"/>
      <use xlink:href="#DejaVuSans-6d" x="336.837891"/>
      <use xlink:href="#DejaVuSans-2c" x="434.25"/>
      <use xlink:href="#DejaVuSans-20" x="466.037109"/>
      <use xlink:href="#DejaVuSans-41" x="497.824219"/>
      <use xlink:href="#DejaVuSans-62" x="566.232422"/>
      <use xlink:href="#DejaVuSans-6f" x="629.708984"/>
      <use xlink:href="#DejaVuSans-6c" x="690.890625"/>
      <use xlink:href="#DejaVuSans-69" x="718.673828"/>
      <use xlink:href="#DejaVuSans-74" x="746.457031"/>
      <use xlink:href="#DejaVuSans-69" x="785.666016"/>
      <use xlink:href="#DejaVuSans-6f" x="813.449219"/>
      <use xlink:href="#DejaVuSans-6e" x="874.630859"/>
     </g>
    </g>
   </g>
   <g id="text_2">
    <g id="patch_4">
     <path d="M 376.967101 236.649675 
L 411.737723 207.518373 
Q 413.347435 206.169735 411.998796 204.560022 
L 407.648031 199.367024 
Q 406.299392 197.757312 404.68968 199.10595 
L 369.919059 228.237252 
Q 368.309347 229.58589 369.657985 231.195603 
L 374.00875 236.388601 
Q 375.357389 237.998313 376.967101 236.649675 
z
" clip-path="url(#p51bf3f3e29)" style="fill: #ffffff; stroke: #ffffff; stroke-linejoin: miter"/>
    </g>
    <g clip-path="url(#p51bf3f3e29)">
     <!-- Veil, Memory -->
     <g transform="translate(374.683547 233.924063) rotate(-39.956734) scale(0.07 -0.07)">
      <defs>
       <path id="DejaVuSans-56" d="M 1831 0 
L 50 4666 
L 709 4666 
L 2188 738 
L 3669 4666 
L 4325 4666 
L 2547 0 
L 1831 0 
z
" transform="scale(0.015625)"/>
       <path id="DejaVuSans-4d" d="M 628 4666 
L 1569 4666 
L 2759 1491 
L 3956 4666 
L 4897 4666 
L 4897 0 
L 4281 0 
L 4281 4097 
L 3078 897 
L 2444 897 
L 1241 4097 
L 1241 0 
L 628 0 
L 628 4666 
z
" transform="scale(0.015625)"/>
       <path id="DejaVuSans-79" d="M 2059 -325 
Q 1816 -950 1584 -1140 
Q 1353 -1331 966 -1331 
L 506 -1331 
L 506 -850 
L 844 -850 
Q 1081 -850 1212 -737 
Q 1344 -625 1503 -206 
L 1606 56 
L 191 3500 
L 800 3500 
L 1894 763 
L 2988 3500 
L 3597 3500 
L 2059 -325 
z
" transform="scale(0.015625)"/>
      </defs>
      <use xlink:href="#DejaVuSans-56"/>
      <use xlink:href="#DejaVuSans-65" x="60.658203"/>
      <use xlink:href="#DejaVuSans-69" x="122.181641"/>
      <use xlink:href="#DejaVuSans-6c" x="149.964844"/>
      <use xlink:href="#DejaVuSans-2c" x="177.748047"/>
      <use xlink:href="#DejaVuSans-20" x="209.535156"/>
      <use xlink:href="#DejaVuSans-4d" x="241.322266"/>
      <use xlink:href="#DejaVuSans-65" x="327.601562"/>
      <use xlink:href="#DejaVuSans-6d" x="389.125"/>
      <use xlink:href="#DejaVuSans-6f" x="486.537109"/>
      <use xlink:href="#DejaVuSans-72" x="547.71875"/>
      <use xlink:href="#DejaVuSans-79" x="588.832031"/>
     </g>
    </g>
   </g>
   <g id="text_3">
    <g id="patch_5">
     <path d="M 408.391414 192.489391 
L 454.381972 160.653516 
Q 456.108641 159.45827 454.913395 157.731601 
L 451.057482 152.161294 
Q 449.862236 150.434624 448.135567 151.62987 
L 402.145009 183.465745 
Q 400.41834 184.660991 401.613586 186.38766 
L 405.469499 191.957968 
Q 406.664745 193.684637 408.391414 192.489391 
z
" clip-path="url(#p51bf3f3e29)" style="fill: #ffffff; stroke: #ffffff; stroke-linejoin: miter"/>
    </g>
    <g clip-path="url(#p51bf3f3e29)">
     <!-- Vernacular, Folk -->
     <g transform="translate(406.367589 189.565744) rotate(-34.692002) scale(0.07 -0.07)">
      <defs>
       <path id="DejaVuSans-61" d="M 2194 1759 
Q 1497 1759 1228 1600 
Q 959 1441 959 1056 
Q 959 750 1161 570 
Q 1363 391 1709 391 
Q 2188 391 2477 730 
Q 2766 1069 2766 1631 
L 2766 1759 
L 2194 1759 
z
M 3341 1997 
L 3341 0 
L 2766 0 
L 2766 531 
Q 2569 213 2275 61 
Q 1981 -91 1556 -91 
Q 1019 -91 701 211 
Q 384 513 384 1019 
Q 384 1609 779 1909 
Q 1175 2209 1959 2209 
L 2766 2209 
L 2766 2266 
Q 2766 2663 2505 2880 
Q 2244 3097 1772 3097 
Q 1472 3097 1187 3025 
Q 903 2953 641 2809 
L 641 3341 
Q 956 3463 1253 3523 
Q 1550 3584 1831 3584 
Q 2591 3584 2966 3190 
Q 3341 2797 3341 1997 
z
" transform="scale(0.015625)"/>
       <path id="DejaVuSans-63" d="M 3122 3366 
L 3122 2828 
Q 2878 2963 2633 3030 
Q 2388 3097 2138 3097 
Q 1578 3097 1268 2742 
Q 959 2388 959 1747 
Q 959 1106 1268 751 
Q 1578 397 2138 397 
Q 2388 397 2633 464 
Q 2878 531 3122 666 
L 3122 134 
Q 2881 22 2623 -34 
Q 2366 -91 2075 -91 
Q 1284 -91 818 406 
Q 353 903 353 1747 
Q 353 2603 823 3093 
Q 1294 3584 2113 3584 
Q 2378 3584 2631 3529 
Q 2884 3475 3122 3366 
z
" transform="scale(0.015625)"/>
       <path id="DejaVuSans-75" d="M 544 1381 
L 544 3500 
L 1119 3500 
L 1119 1403 
Q 1119 906 1312 657 
Q 1506 409 1894 409 
Q 2359 409 2629 706 
Q 2900 1003 2900 1516 
L 2900 3500 
L 3475 3500 
L 3475 0 
L 2900 0 
L 2900 538 
Q 2691 219 2414 64 
Q 2138 -91 1772 -91 
Q 1169 -91 856 284 
Q 544 659 544 1381 
z
M 1991 3584 
L 1991 3584 
z
" transform="scale(0.015625)"/>
       <path id="DejaVuSans-6b" d="M 581 4863 
L 1159 4863 
L 1159 1991 
L 2875 3500 
L 3609 3500 
L 1753 1863 
L 3688 0 
L 2938 0 
L 1159 1709 
L 1159 0 
L 581 0 
L 581 4863 
z
" transform="scale(0.015625)"/>
      </defs>
      <use xlink:href="#DejaVuSans-56"/>
      <use xlink:href="#DejaVuSans-65" x="60.658203"/>
      <use xlink:href="#DejaVuSans-72" x="122.181641"/>
      <use xlink:href="#DejaVuSans-6e" x="161.544922"/>
      <use xlink:href="#DejaVuSans-61" x="224.923828"/>
      <use xlink:href="#DejaVuSans-63" x="286.203125"/>
      <use xlink:href="#DejaVuSans-75" x="341.183594"/>
      <use xlink:href="#DejaVuSans-6c" x="404.5625"/>
      <use xlink:href="#DejaVuSans-61" x="432.345703"/>
      <use xlink:href="#DejaVuSans-72" x="493.625"/>
      <use xlink:href="#DejaVuSans-2c" x="534.738281"/>
      <use xlink:href="#DejaVuSans-20" x="566.525391"/>
      <use xlink:href="#DejaVuSans-46" x="598.3125"/>
      <use xlink:href="#DejaVuSans-6f" x="652.207031"/>
      <use xlink:href="#DejaVuSans-6c" x="713.388672"/>
      <use xlink:href="#DejaVuSans-6b" x="741.171875"/>
     </g>
    </g>
   </g>
   <g id="text_4">
    <g id="patch_6">
     <path d="M 532.318402 107.075923 
L 618.852804 63.576103 
Q 620.729079 62.632922 619.785897 60.756647 
L 616.743155 54.703705 
Q 615.799974 52.827429 613.923698 53.770611 
L 527.389297 97.270431 
Q 525.513021 98.213612 526.456203 100.089887 
L 529.498945 106.142829 
Q 530.442126 108.019105 532.318402 107.075923 
z
" clip-path="url(#p51bf3f3e29)" style="fill: #ffffff; stroke: #ffffff; stroke-linejoin: miter"/>
    </g>
    <g clip-path="url(#p51bf3f3e29)">
     <!-- Memory, Haunting, Witness -->
     <g transform="translate(530.72138 103.898959) rotate(-26.688135) scale(0.07 -0.07)">
      <defs>
       <path id="DejaVuSans-48" d="M 628 4666 
L 1259 4666 
L 1259 2753 
L 3553 2753 
L 3553 4666 
L 4184 4666 
L 4184 0 
L 3553 0 
L 3553 2222 
L 1259 2222 
L 1259 0 
L 628 0 
L 628 4666 
z
" transform="scale(0.015625)"/>
       <path id="DejaVuSans-67" d="M 2906 1791 
Q 2906 2416 2648 2759 
Q 2391 3103 1925 3103 
Q 1463 3103 1205 2759 
Q 947 2416 947 1791 
Q 947 1169 1205 825 
Q 1463 481 1925 481 
Q 2391 481 2648 825 
Q 2906 1169 2906 1791 
z
M 3481 434 
Q 3481 -459 3084 -895 
Q 2688 -1331 1869 -1331 
Q 1566 -1331 1297 -1286 
Q 1028 -1241 775 -1147 
L 775 -588 
Q 1028 -725 1275 -790 
Q 1522 -856 1778 -856 
Q 2344 -856 2625 -561 
Q 2906 -266 2906 331 
L 2906 616 
Q 2728 306 2450 153 
Q 2172 0 1784 0 
Q 1141 0 747 490 
Q 353 981 353 1791 
Q 353 2603 747 3093 
Q 1141 3584 1784 3584 
Q 2172 3584 2450 3431 
Q 2728 3278 2906 2969 
L 2906 3500 
L 3481 3500 
L 3481 434 
z
" transform="scale(0.015625)"/>
       <path id="DejaVuSans-57" d="M 213 4666 
L 850 4666 
L 1831 722 
L 2809 4666 
L 3519 4666 
L 4500 722 
L 5478 4666 
L 6119 4666 
L 4947 0 
L 4153 0 
L 3169 4050 
L 2175 0 
L 1381 0 
L 213 4666 
z
" transform="scale(0.015625)"/>
       <path id="DejaVuSans-73" d="M 2834 3397 
L 2834 2853 
Q 2591 2978 2328 3040 
Q 2066 3103 1784 3103 
Q 1356 3103 1142 2972 
Q 928 2841 928 2578 
Q 928 2378 1081 2264 
Q 1234 2150 1697 2047 
L 1894 2003 
Q 2506 1872 2764 1633 
Q 3022 1394 3022 966 
Q 3022 478 2636 193 
Q 2250 -91 1575 -91 
Q 1294 -91 989 -36 
Q 684 19 347 128 
L 347 722 
Q 666 556 975 473 
Q 1284 391 1588 391 
Q 1994 391 2212 530 
Q 2431 669 2431 922 
Q 2431 1156 2273 1281 
Q 2116 1406 1581 1522 
L 1381 1569 
Q 847 1681 609 1914 
Q 372 2147 372 2553 
Q 372 3047 722 3315 
Q 1072 3584 1716 3584 
Q 2034 3584 2315 3537 
Q 2597 3491 2834 3397 
z
" transform="scale(0.015625)"/>
      </defs>
      <use xlink:href="#DejaVuSans-4d"/>
      <use xlink:href="#DejaVuSans-65" x="86.279297"/>
      <use xlink:href="#DejaVuSans-6d" x="147.802734"/>
      <use xlink:href="#DejaVuSans-6f" x="245.214844"/>
      <use xlink:href="#DejaVuSans-72" x="306.396484"/>
      <use xlink:href="#DejaVuSans-79" x="347.509766"/>
      <use xlink:href="#DejaVuSans-2c" x="406.689453"/>
      <use xlink:href="#DejaVuSans-20" x="438.476562"/>
      <use xlink:href="#DejaVuSans-48" x="470.263672"/>
      <use xlink:href="#DejaVuSans-61" x="545.458984"/>
      <use xlink:href="#DejaVuSans-75" x="606.738281"/>
      <use xlink:href="#DejaVuSans-6e" x="670.117188"/>
      <use xlink:href="#DejaVuSans-74" x="733.496094"/>
      <use xlink:href="#DejaVuSans-69" x="772.705078"/>
      <use xlink:href="#DejaVuSans-6e" x="800.488281"/>
      <use xlink:href="#DejaVuSans-67" x="863.867188"/>
      <use xlink:href="#DejaVuSans-2c" x="927.34375"/>
      <use xlink:href="#DejaVuSans-20" x="959.130859"/>
      <use xlink:href="#DejaVuSans-57" x="990.917969"/>
      <use xlink:href="#DejaVuSans-69" x="1087.544922"/>
      <use xlink:href="#DejaVuSans-74" x="1115.328125"/>
      <use xlink:href="#DejaVuSans-6e" x="1154.537109"/>
      <use xlink:href="#DejaVuSans-65" x="1217.916016"/>
      <use xlink:href="#DejaVuSans-73" x="1279.439453"/>
      <use xlink:href="#DejaVuSans-73" x="1331.539062"/>
     </g>
    </g>
   </g>
   <g id="text_5">
    <g id="patch_7">
     <path d="M 313.994199 313.589553 
L 341.499764 216.802499 
Q 342.073824 214.782485 340.05381 214.208425 
L 333.537163 212.356482 
Q 331.517149 211.782422 330.943089 213.802435 
L 303.437524 310.58949 
Q 302.863463 312.609503 304.883477 313.183564 
L 311.400125 315.035507 
Q 313.420138 315.609567 313.994199 313.589553 
z
" clip-path="url(#p51bf3f3e29)" style="fill: #ffffff; stroke: #ffffff; stroke-linejoin: miter"/>
    </g>
    <g clip-path="url(#p51bf3f3e29)">
     <!-- Harlem Renaissance, Poetics -->
     <g transform="translate(310.573853 312.617538) rotate(-74.135571) scale(0.07 -0.07)">
      <defs>
       <path id="DejaVuSans-52" d="M 2841 2188 
Q 3044 2119 3236 1894 
Q 3428 1669 3622 1275 
L 4263 0 
L 3584 0 
L 2988 1197 
Q 2756 1666 2539 1819 
Q 2322 1972 1947 1972 
L 1259 1972 
L 1259 0 
L 628 0 
L 628 4666 
L 2053 4666 
Q 2853 4666 3247 4331 
Q 3641 3997 3641 3322 
Q 3641 2881 3436 2590 
Q 3231 2300 2841 2188 
z
M 1259 4147 
L 1259 2491 
L 2053 2491 
Q 2509 2491 2742 2702 
Q 2975 2913 2975 3322 
Q 2975 3731 2742 3939 
Q 2509 4147 2053 4147 
L 1259 4147 
z
" transform="scale(0.015625)"/>
       <path id="DejaVuSans-50" d="M 1259 4147 
L 1259 2394 
L 2053 2394 
Q 2494 2394 2734 2622 
Q 2975 2850 2975 3272 
Q 2975 3691 2734 3919 
Q 2494 4147 2053 4147 
L 1259 4147 
z
M 628 4666 
L 2053 4666 
Q 2838 4666 3239 4311 
Q 3641 3956 3641 3272 
Q 3641 2581 3239 2228 
Q 2838 1875 2053 1875 
L 1259 1875 
L 1259 0 
L 628 0 
L 628 4666 
z
" transform="scale(0.015625)"/>
      </defs>
      <use xlink:href="#DejaVuSans-48"/>
      <use xlink:href="#DejaVuSans-61" x="75.195312"/>
      <use xlink:href="#DejaVuSans-72" x="136.474609"/>
      <use xlink:href="#DejaVuSans-6c" x="177.587891"/>
      <use xlink:href="#DejaVuSans-65" x="205.371094"/>
      <use xlink:href="#DejaVuSans-6d" x="266.894531"/>
      <use xlink:href="#DejaVuSans-20" x="364.306641"/>
      <use xlink:href="#DejaVuSans-52" x="396.09375"/>
      <use xlink:href="#DejaVuSans-65" x="461.076172"/>
      <use xlink:href="#DejaVuSans-6e" x="522.599609"/>
      <use xlink:href="#DejaVuSans-61" x="585.978516"/>
      <use xlink:href="#DejaVuSans-69" x="647.257812"/>
      <use xlink:href="#DejaVuSans-73" x="675.041016"/>
      <use xlink:href="#DejaVuSans-73" x="727.140625"/>
      <use xlink:href="#DejaVuSans-61" x="779.240234"/>
      <use xlink:href="#DejaVuSans-6e" x="840.519531"/>
      <use xlink:href="#DejaVuSans-63" x="903.898438"/>
      <use xlink:href="#DejaVuSans-65" x="958.878906"/>
      <use xlink:href="#DejaVuSans-2c" x="1020.402344"/>
      <use xlink:href="#DejaVuSans-20" x="1052.189453"/>
      <use xlink:href="#DejaVuSans-50" x="1083.976562"/>
      <use xlink:href="#DejaVuSans-6f" x="1140.654297"/>
      <use xlink:href="#DejaVuSans-65" x="1201.835938"/>
      <use xlink:href="#DejaVuSans-74" x="1263.359375"/>
      <use xlink:href="#DejaVuSans-69" x="1302.568359"/>
      <use xlink:href="#DejaVuSans-63" x="1330.351562"/>
      <use xlink:href="#DejaVuSans-73" x="1385.332031"/>
     </g>
    </g>
   </g>
   <g id="text_6">
    <g id="patch_8">
     <path d="M 497.138173 129.559158 
L 576.203246 86.756766 
Q 578.049999 85.757015 577.050247 83.910262 
L 573.825006 77.95256 
Q 572.825255 76.105807 570.978502 77.105558 
L 491.913429 119.90795 
Q 490.066676 120.907701 491.066428 122.754454 
L 494.291668 128.712156 
Q 495.29142 130.558909 497.138173 129.559158 
z
" clip-path="url(#p51bf3f3e29)" style="fill: #ffffff; stroke: #ffffff; stroke-linejoin: miter"/>
    </g>
    <g clip-path="url(#p51bf3f3e29)">
     <!-- Epistolary, Moral Urgency -->
     <g transform="translate(495.445364 126.432182) rotate(-28.429187) scale(0.07 -0.07)">
      <defs>
       <path id="DejaVuSans-45" d="M 628 4666 
L 3578 4666 
L 3578 4134 
L 1259 4134 
L 1259 2753 
L 3481 2753 
L 3481 2222 
L 1259 2222 
L 1259 531 
L 3634 531 
L 3634 0 
L 628 0 
L 628 4666 
z
" transform="scale(0.015625)"/>
       <path id="DejaVuSans-70" d="M 1159 525 
L 1159 -1331 
L 581 -1331 
L 581 3500 
L 1159 3500 
L 1159 2969 
Q 1341 3281 1617 3432 
Q 1894 3584 2278 3584 
Q 2916 3584 3314 3078 
Q 3713 2572 3713 1747 
Q 3713 922 3314 415 
Q 2916 -91 2278 -91 
Q 1894 -91 1617 61 
Q 1341 213 1159 525 
z
M 3116 1747 
Q 3116 2381 2855 2742 
Q 2594 3103 2138 3103 
Q 1681 3103 1420 2742 
Q 1159 2381 1159 1747 
Q 1159 1113 1420 752 
Q 1681 391 2138 391 
Q 2594 391 2855 752 
Q 3116 1113 3116 1747 
z
" transform="scale(0.015625)"/>
       <path id="DejaVuSans-55" d="M 556 4666 
L 1191 4666 
L 1191 1831 
Q 1191 1081 1462 751 
Q 1734 422 2344 422 
Q 2950 422 3222 751 
Q 3494 1081 3494 1831 
L 3494 4666 
L 4128 4666 
L 4128 1753 
Q 4128 841 3676 375 
Q 3225 -91 2344 -91 
Q 1459 -91 1007 375 
Q 556 841 556 1753 
L 556 4666 
z
" transform="scale(0.015625)"/>
      </defs>
      <use xlink:href="#DejaVuSans-45"/>
      <use xlink:href="#DejaVuSans-70" x="63.183594"/>
      <use xlink:href="#DejaVuSans-69" x="126.660156"/>
      <use xlink:href="#DejaVuSans-73" x="154.443359"/>
      <use xlink:href="#DejaVuSans-74" x="206.542969"/>
      <use xlink:href="#DejaVuSans-6f" x="245.751953"/>
      <use xlink:href="#DejaVuSans-6c" x="306.933594"/>
      <use xlink:href="#DejaVuSans-61" x="334.716797"/>
      <use xlink:href="#DejaVuSans-72" x="395.996094"/>
      <use xlink:href="#DejaVuSans-79" x="437.109375"/>
      <use xlink:href="#DejaVuSans-2c" x="496.289062"/>
      <use xlink:href="#DejaVuSans-20" x="528.076172"/>
      <use xlink:href="#DejaVuSans-4d" x="559.863281"/>
      <use xlink:href="#DejaVuSans-6f" x="646.142578"/>
      <use xlink:href="#DejaVuSans-72" x="707.324219"/>
      <use xlink:href="#DejaVuSans-61" x="748.4375"/>
      <use xlink:href="#DejaVuSans-6c" x="809.716797"/>
      <use xlink:href="#DejaVuSans-20" x="837.5"/>
      <use xlink:href="#DejaVuSans-55" x="869.287109"/>
      <use xlink:href="#DejaVuSans-72" x="942.480469"/>
      <use xlink:href="#DejaVuSans-67" x="981.84375"/>
      <use xlink:href="#DejaVuSans-65" x="1045.320312"/>
      <use xlink:href="#DejaVuSans-6e" x="1106.84375"/>
      <use xlink:href="#DejaVuSans-63" x="1170.222656"/>
      <use xlink:href="#DejaVuSans-79" x="1225.203125"/>
     </g>
    </g>
   </g>
   <g id="matplotlib.axis_1">
    <g id="xtick_1">
     <g id="line2d_1">
      <path d="M 81.581915 411.917812 
L 81.581915 23.837812 
" clip-path="url(#p51bf3f3e29)" style="fill: none; stroke-dasharray: 2.22,0.96; stroke-dashoffset: 0; stroke: #b0b0b0; stroke-opacity: 0.5; stroke-width: 0.6"/>
     </g>
    </g>
    <g id="xtick_2">
     <g id="line2d_2">
      <path d="M 162.962567 411.917812 
L 162.962567 23.837812 
" clip-path="url(#p51bf3f3e29)" style="fill: none; stroke-dasharray: 2.22,0.96; stroke-dashoffset: 0; stroke: #b0b0b0; stroke-opacity: 0.5; stroke-width: 0.6"/>
     </g>
    </g>
    <g id="xtick_3">
     <g id="line2d_3">
      <path d="M 244.343218 411.917812 
L 244.343218 23.837812 
" clip-path="url(#p51bf3f3e29)" style="fill: none; stroke-dasharray: 2.22,0.96; stroke-dashoffset: 0; stroke: #b0b0b0; stroke-opacity: 0.5; stroke-width: 0.6"/>
     </g>
    </g>
    <g id="xtick_4">
     <g id="line2d_4">
      <path d="M 325.72387 411.917812 
L 325.72387 23.837812 
" clip-path="url(#p51bf3f3e29)" style="fill: none; stroke-dasharray: 2.22,0.96; stroke-dashoffset: 0; stroke: #b0b0b0; stroke-opacity: 0.5; stroke-width: 0.6"/>
     </g>
    </g>
    <g id="xtick_5">
     <g id="line2d_5">
      <path d="M 407.104521 411.917812 
L 407.104521 23.837812 
" clip-path="url(#p51bf3f3e29)" style="fill: none; stroke-dasharray: 2.22,0.96; stroke-dashoffset: 0; stroke: #b0b0b0; stroke-opacity: 0.5; stroke-width: 0.6"/>
     </g>
    </g>
    <g id="xtick_6">
     <g id="line2d_6">
      <path d="M 488.485173 411.917812 
L 488.485173 23.837812 
" clip-path="url(#p51bf3f3e29)" style="fill: none; stroke-dasharray: 2.22,0.96; stroke-dashoffset: 0; stroke: #b0b0b0; stroke-opacity: 0.5; stroke-width: 0.6"/>
     </g>
    </g>
    <g id="xtick_7">
     <g id="line2d_7">
      <path d="M 569.865824 411.917812 
L 569.865824 23.837812 
" clip-path="url(#p51bf3f3e29)" style="fill: none; stroke-dasharray: 2.22,0.96; stroke-dashoffset: 0; stroke: #b0b0b0; stroke-opacity: 0.5; stroke-width: 0.6"/>
     </g>
    </g>
    <g id="xtick_8">
     <g id="line2d_8">
      <path d="M 651.246475 411.917812 
L 651.246475 23.837812 
" clip-path="url(#p51bf3f3e29)" style="fill: none; stroke-dasharray: 2.22,0.96; stroke-dashoffset: 0; stroke: #b0b0b0; stroke-opacity: 0.5; stroke-width: 0.6"/>
     </g>
    </g>
    <g id="text_7">
     <!-- Timeline (Approximate Year) -->
     <g style="fill: #1a1a1a" transform="translate(256.969688 425.035937) scale(0.12 -0.12)">
      <defs>
       <path id="DejaVuSans-54" d="M -19 4666 
L 3928 4666 
L 3928 4134 
L 2272 4134 
L 2272 0 
L 1638 0 
L 1638 4134 
L -19 4134 
L -19 4666 
z
" transform="scale(0.015625)"/>
       <path id="DejaVuSans-28" d="M 1984 4856 
Q 1566 4138 1362 3434 
Q 1159 2731 1159 2009 
Q 1159 1288 1364 580 
Q 1569 -128 1984 -844 
L 1484 -844 
Q 1016 -109 783 600 
Q 550 1309 550 2009 
Q 550 2706 781 3412 
Q 1013 4119 1484 4856 
L 1984 4856 
z
" transform="scale(0.015625)"/>
       <path id="DejaVuSans-78" d="M 3513 3500 
L 2247 1797 
L 3578 0 
L 2900 0 
L 1881 1375 
L 863 0 
L 184 0 
L 1544 1831 
L 300 3500 
L 978 3500 
L 1906 2253 
L 2834 3500 
L 3513 3500 
z
" transform="scale(0.015625)"/>
       <path id="DejaVuSans-59" d="M -13 4666 
L 666 4666 
L 1959 2747 
L 3244 4666 
L 3922 4666 
L 2272 2222 
L 2272 0 
L 1638 0 
L 1638 2222 
L -13 4666 
z
" transform="scale(0.015625)"/>
       <path id="DejaVuSans-29" d="M 513 4856 
L 1013 4856 
Q 1481 4119 1714 3412 
Q 1947 2706 1947 2009 
Q 1947 1309 1714 600 
Q 1481 -109 1013 -844 
L 513 -844 
Q 928 -128 1133 580 
Q 1338 1288 1338 2009 
Q 1338 2731 1133 3434 
Q 928 4138 513 4856 
z
" transform="scale(0.015625)"/>
      </defs>
      <use xlink:href="#DejaVuSans-54"/>
      <use xlink:href="#DejaVuSans-69" x="57.958984"/>
      <use xlink:href="#DejaVuSans-6d" x="85.742188"/>
      <use xlink:href="#DejaVuSans-65" x="183.154297"/>
      <use xlink:href="#DejaVuSans-6c" x="244.677734"/>
      <use xlink:href="#DejaVuSans-69" x="272.460938"/>
      <use xlink:href="#DejaVuSans-6e" x="300.244141"/>
      <use xlink:href="#DejaVuSans-65" x="363.623047"/>
      <use xlink:href="#DejaVuSans-20" x="425.146484"/>
      <use xlink:href="#DejaVuSans-28" x="456.933594"/>
      <use xlink:href="#DejaVuSans-41" x="495.947266"/>
      <use xlink:href="#DejaVuSans-70" x="564.355469"/>
      <use xlink:href="#DejaVuSans-70" x="627.832031"/>
      <use xlink:href="#DejaVuSans-72" x="691.308594"/>
      <use xlink:href="#DejaVuSans-6f" x="730.171875"/>
      <use xlink:href="#DejaVuSans-78" x="788.228516"/>
      <use xlink:href="#DejaVuSans-69" x="847.408203"/>
      <use xlink:href="#DejaVuSans-6d" x="875.191406"/>
      <use xlink:href="#DejaVuSans-61" x="972.603516"/>
      <use xlink:href="#DejaVuSans-74" x="1033.882812"/>
      <use xlink:href="#DejaVuSans-65" x="1073.091797"/>
      <use xlink:href="#DejaVuSans-20" x="1134.615234"/>
      <use xlink:href="#DejaVuSans-59" x="1166.402344"/>
      <use xlink:href="#DejaVuSans-65" x="1214.236328"/>
      <use xlink:href="#DejaVuSans-61" x="1275.759766"/>
      <use xlink:href="#DejaVuSans-72" x="1337.039062"/>
      <use xlink:href="#DejaVuSans-29" x="1378.152344"/>
     </g>
    </g>
   </g>
   <g id="matplotlib.axis_2"/>
   <g id="PathCollection_1">
    <defs>
     <path id="md43f061a05" d="M 0 17.320508 
C 4.593452 17.320508 8.999387 15.49551 12.247449 12.247449 
C 15.49551 8.999387 17.320508 4.593452 17.320508 0 
C 17.320508 -4.593452 15.49551 -8.999387 12.247449 -12.247449 
C 8.999387 -15.49551 4.593452 -17.320508 0 -17.320508 
C -4.593452 -17.320508 -8.999387 -15.49551 -12.247449 -12.247449 
C -15.49551 -8.999387 -17.320508 -4.593452 -17.320508 0 
C -17.320508 4.593452 -15.49551 8.999387 -12.247449 12.247449 
C -8.999387 15.49551 -4.593452 17.320508 0 17.320508 
z
" style="stroke: #000000"/>
    </defs>
    <g clip-path="url(#p51bf3f3e29)">
     <use xlink:href="#md43f061a05" x="65.305785" y="378.241449" style="fill: #add8e6; stroke: #000000"/>
     <use xlink:href="#md43f061a05" x="423.380651" y="194.968722" style="fill: #add8e6; stroke: #000000"/>
     <use xlink:href="#md43f061a05" x="254.108896" y="332.423267" style="fill: #add8e6; stroke: #000000"/>
     <use xlink:href="#md43f061a05" x="527.547885" y="103.332358" style="fill: #add8e6; stroke: #000000"/>
     <use xlink:href="#md43f061a05" x="315.958192" y="286.605085" style="fill: #add8e6; stroke: #000000"/>
     <use xlink:href="#md43f061a05" x="328.979096" y="240.786903" style="fill: #add8e6; stroke: #000000"/>
     <use xlink:href="#md43f061a05" x="449.42246" y="149.15054" style="fill: #add8e6; stroke: #000000"/>
     <use xlink:href="#md43f061a05" x="618.694215" y="57.514176" style="fill: #add8e6; stroke: #000000"/>
    </g>
   </g>
   <g id="patch_9">
    <path d="M 7.2 411.917812 
L 7.2 23.837812 
" style="fill: none; stroke: #1a1a1a; stroke-linejoin: miter; stroke-linecap: square"/>
   </g>
   <g id="patch_10">
    <path d="M 7.2 411.917812 
L 676.8 411.917812 
" style="fill: none; stroke: #1a1a1a; stroke-linejoin: miter; stroke-linecap: square"/>
   </g>
   <g id="text_8">
    <g clip-path="url(#p51bf3f3e29)">
     <!-- Narrative of the Life of Frederick Douglass (1845) -->
     <g transform="translate(-36.974215 380.392074) scale(0.08 -0.08)">
      <defs>
       <path id="DejaVuSerif-4e" d="M 313 0 
L 313 331 
L 941 331 
L 941 4331 
L 313 4331 
L 313 4666 
L 1509 4666 
L 4306 984 
L 4306 4331 
L 3681 4331 
L 3681 4666 
L 5319 4666 
L 5319 4331 
L 4691 4331 
L 4691 -91 
L 4313 -91 
L 1325 3841 
L 1325 331 
L 1953 331 
L 1953 0 
L 313 0 
z
" transform="scale(0.015625)"/>
       <path id="DejaVuSerif-61" d="M 2547 1044 
L 2547 1747 
L 1806 1747 
Q 1378 1747 1168 1562 
Q 959 1378 959 997 
Q 959 650 1171 447 
Q 1384 244 1747 244 
Q 2106 244 2326 466 
Q 2547 688 2547 1044 
z
M 3122 2075 
L 3122 331 
L 3634 331 
L 3634 0 
L 2547 0 
L 2547 359 
Q 2356 128 2106 18 
Q 1856 -91 1522 -91 
Q 969 -91 644 203 
Q 319 497 319 997 
Q 319 1513 691 1797 
Q 1063 2081 1741 2081 
L 2547 2081 
L 2547 2309 
Q 2547 2688 2317 2895 
Q 2088 3103 1672 3103 
Q 1328 3103 1125 2947 
Q 922 2791 872 2484 
L 575 2484 
L 575 3156 
Q 875 3284 1158 3348 
Q 1441 3413 1709 3413 
Q 2400 3413 2761 3070 
Q 3122 2728 3122 2075 
z
" transform="scale(0.015625)"/>
       <path id="DejaVuSerif-72" d="M 3059 3328 
L 3059 2497 
L 2728 2497 
Q 2713 2744 2591 2866 
Q 2469 2988 2234 2988 
Q 1809 2988 1582 2694 
Q 1356 2400 1356 1850 
L 1356 331 
L 2022 331 
L 2022 0 
L 263 0 
L 263 331 
L 781 331 
L 781 2994 
L 231 2994 
L 231 3322 
L 1356 3322 
L 1356 2731 
Q 1525 3078 1790 3245 
Q 2056 3413 2438 3413 
Q 2578 3413 2733 3391 
Q 2888 3369 3059 3328 
z
" transform="scale(0.015625)"/>
       <path id="DejaVuSerif-74" d="M 691 2988 
L 184 2988 
L 184 3322 
L 691 3322 
L 691 4353 
L 1269 4353 
L 1269 3322 
L 2350 3322 
L 2350 2988 
L 1269 2988 
L 1269 878 
Q 1269 456 1350 337 
Q 1431 219 1650 219 
Q 1875 219 1978 351 
Q 2081 484 2088 781 
L 2522 781 
Q 2497 328 2275 118 
Q 2053 -91 1600 -91 
Q 1103 -91 897 129 
Q 691 350 691 878 
L 691 2988 
z
" transform="scale(0.015625)"/>
       <path id="DejaVuSerif-69" d="M 622 4353 
Q 622 4497 726 4603 
Q 831 4709 978 4709 
Q 1122 4709 1226 4603 
Q 1331 4497 1331 4353 
Q 1331 4206 1228 4103 
Q 1125 4000 978 4000 
Q 831 4000 726 4103 
Q 622 4206 622 4353 
z
M 1356 331 
L 1900 331 
L 1900 0 
L 231 0 
L 231 331 
L 781 331 
L 781 2988 
L 231 2988 
L 231 3322 
L 1356 3322 
L 1356 331 
z
" transform="scale(0.015625)"/>
       <path id="DejaVuSerif-76" d="M 1581 0 
L 359 2988 
L -19 2988 
L -19 3322 
L 1509 3322 
L 1509 2988 
L 978 2988 
L 1913 703 
L 2847 2988 
L 2350 2988 
L 2350 3322 
L 3597 3322 
L 3597 2988 
L 3225 2988 
L 2003 0 
L 1581 0 
z
" transform="scale(0.015625)"/>
       <path id="DejaVuSerif-65" d="M 3469 1600 
L 991 1600 
L 991 1575 
Q 991 903 1244 561 
Q 1497 219 1991 219 
Q 2369 219 2611 417 
Q 2853 616 2950 1006 
L 3413 1006 
Q 3275 459 2904 184 
Q 2534 -91 1931 -91 
Q 1203 -91 761 389 
Q 319 869 319 1663 
Q 319 2450 753 2931 
Q 1188 3413 1894 3413 
Q 2647 3413 3050 2948 
Q 3453 2484 3469 1600 
z
M 2791 1931 
Q 2772 2513 2545 2808 
Q 2319 3103 1894 3103 
Q 1497 3103 1269 2806 
Q 1041 2509 991 1931 
L 2791 1931 
z
" transform="scale(0.015625)"/>
       <path id="DejaVuSerif-20" transform="scale(0.015625)"/>
       <path id="DejaVuSerif-6f" d="M 1925 219 
Q 2388 219 2623 584 
Q 2859 950 2859 1663 
Q 2859 2375 2623 2739 
Q 2388 3103 1925 3103 
Q 1463 3103 1227 2739 
Q 991 2375 991 1663 
Q 991 950 1228 584 
Q 1466 219 1925 219 
z
M 1925 -91 
Q 1200 -91 759 389 
Q 319 869 319 1663 
Q 319 2456 758 2934 
Q 1197 3413 1925 3413 
Q 2653 3413 3092 2934 
Q 3531 2456 3531 1663 
Q 3531 869 3092 389 
Q 2653 -91 1925 -91 
z
" transform="scale(0.015625)"/>
       <path id="DejaVuSerif-66" d="M 2753 4078 
L 2450 4078 
Q 2447 4313 2317 4434 
Q 2188 4556 1941 4556 
Q 1619 4556 1487 4379 
Q 1356 4203 1356 3750 
L 1356 3322 
L 2284 3322 
L 2284 2988 
L 1356 2988 
L 1356 331 
L 2094 331 
L 2094 0 
L 231 0 
L 231 331 
L 781 331 
L 781 2988 
L 231 2988 
L 231 3322 
L 781 3322 
L 781 3738 
Q 781 4294 1070 4578 
Q 1359 4863 1919 4863 
Q 2128 4863 2337 4825 
Q 2547 4788 2753 4709 
L 2753 4078 
z
" transform="scale(0.015625)"/>
       <path id="DejaVuSerif-68" d="M 263 0 
L 263 331 
L 781 331 
L 781 4531 
L 231 4531 
L 231 4863 
L 1356 4863 
L 1356 2731 
Q 1516 3069 1770 3241 
Q 2025 3413 2363 3413 
Q 2913 3413 3172 3097 
Q 3431 2781 3431 2113 
L 3431 331 
L 3944 331 
L 3944 0 
L 2356 0 
L 2356 331 
L 2853 331 
L 2853 1931 
Q 2853 2541 2704 2764 
Q 2556 2988 2175 2988 
Q 1775 2988 1565 2697 
Q 1356 2406 1356 1850 
L 1356 331 
L 1856 331 
L 1856 0 
L 263 0 
z
" transform="scale(0.015625)"/>
       <path id="DejaVuSerif-4c" d="M 353 0 
L 353 331 
L 947 331 
L 947 4331 
L 353 4331 
L 353 4666 
L 2175 4666 
L 2175 4331 
L 1581 4331 
L 1581 384 
L 3713 384 
L 3713 1166 
L 4097 1166 
L 4097 0 
L 353 0 
z
" transform="scale(0.015625)"/>
       <path id="DejaVuSerif-46" d="M 353 0 
L 353 331 
L 947 331 
L 947 4331 
L 353 4331 
L 353 4666 
L 4172 4666 
L 4172 3628 
L 3788 3628 
L 3788 4281 
L 1581 4281 
L 1581 2719 
L 3175 2719 
L 3175 3303 
L 3559 3303 
L 3559 1753 
L 3175 1753 
L 3175 2338 
L 1581 2338 
L 1581 331 
L 2328 331 
L 2328 0 
L 353 0 
z
" transform="scale(0.015625)"/>
       <path id="DejaVuSerif-64" d="M 3359 331 
L 3909 331 
L 3909 0 
L 2784 0 
L 2784 519 
Q 2616 206 2355 57 
Q 2094 -91 1709 -91 
Q 1097 -91 708 395 
Q 319 881 319 1663 
Q 319 2444 706 2928 
Q 1094 3413 1709 3413 
Q 2094 3413 2355 3264 
Q 2616 3116 2784 2803 
L 2784 4531 
L 2241 4531 
L 2241 4863 
L 3359 4863 
L 3359 331 
z
M 2784 1497 
L 2784 1825 
Q 2784 2422 2554 2737 
Q 2325 3053 1888 3053 
Q 1444 3053 1217 2703 
Q 991 2353 991 1663 
Q 991 975 1217 622 
Q 1444 269 1888 269 
Q 2325 269 2554 583 
Q 2784 897 2784 1497 
z
" transform="scale(0.015625)"/>
       <path id="DejaVuSerif-63" d="M 3291 997 
Q 3169 466 2822 187 
Q 2475 -91 1925 -91 
Q 1200 -91 759 389 
Q 319 869 319 1663 
Q 319 2459 759 2936 
Q 1200 3413 1925 3413 
Q 2241 3413 2553 3339 
Q 2866 3266 3181 3116 
L 3181 2266 
L 2847 2266 
Q 2781 2703 2561 2903 
Q 2341 3103 1931 3103 
Q 1466 3103 1228 2742 
Q 991 2381 991 1663 
Q 991 944 1227 581 
Q 1463 219 1931 219 
Q 2303 219 2525 412 
Q 2747 606 2828 997 
L 3291 997 
z
" transform="scale(0.015625)"/>
       <path id="DejaVuSerif-6b" d="M 1831 0 
L 219 0 
L 219 331 
L 738 331 
L 738 4531 
L 184 4531 
L 184 4863 
L 1313 4863 
L 1313 1697 
L 2713 2988 
L 2234 2988 
L 2234 3322 
L 3738 3322 
L 3738 2988 
L 3169 2988 
L 2181 2075 
L 3444 331 
L 3922 331 
L 3922 0 
L 2284 0 
L 2284 331 
L 2759 331 
L 1766 1697 
L 1313 1275 
L 1313 331 
L 1831 331 
L 1831 0 
z
" transform="scale(0.015625)"/>
       <path id="DejaVuSerif-44" d="M 1581 331 
L 2163 331 
Q 3072 331 3558 850 
Q 4044 1369 4044 2338 
Q 4044 3306 3559 3818 
Q 3075 4331 2163 4331 
L 1581 4331 
L 1581 331 
z
M 353 0 
L 353 331 
L 947 331 
L 947 4331 
L 353 4331 
L 353 4666 
L 2209 4666 
Q 3416 4666 4089 4050 
Q 4763 3434 4763 2338 
Q 4763 1238 4088 619 
Q 3413 0 2209 0 
L 353 0 
z
" transform="scale(0.015625)"/>
       <path id="DejaVuSerif-75" d="M 2266 3322 
L 3341 3322 
L 3341 331 
L 3884 331 
L 3884 0 
L 2766 0 
L 2766 588 
Q 2606 256 2353 82 
Q 2100 -91 1766 -91 
Q 1213 -91 952 223 
Q 691 538 691 1209 
L 691 2988 
L 172 2988 
L 172 3322 
L 1269 3322 
L 1269 1388 
Q 1269 781 1417 556 
Q 1566 331 1947 331 
Q 2347 331 2556 625 
Q 2766 919 2766 1478 
L 2766 2988 
L 2266 2988 
L 2266 3322 
z
" transform="scale(0.015625)"/>
       <path id="DejaVuSerif-67" d="M 3359 2988 
L 3359 72 
Q 3359 -644 2965 -1033 
Q 2572 -1422 1844 -1422 
Q 1516 -1422 1216 -1362 
Q 916 -1303 641 -1184 
L 641 -488 
L 941 -488 
Q 997 -813 1206 -963 
Q 1416 -1113 1806 -1113 
Q 2313 -1113 2548 -827 
Q 2784 -541 2784 72 
L 2784 519 
Q 2616 206 2355 57 
Q 2094 -91 1709 -91 
Q 1097 -91 708 395 
Q 319 881 319 1663 
Q 319 2444 706 2928 
Q 1094 3413 1709 3413 
Q 2094 3413 2355 3264 
Q 2616 3116 2784 2803 
L 2784 3322 
L 3909 3322 
L 3909 2988 
L 3359 2988 
z
M 2784 1825 
Q 2784 2422 2554 2737 
Q 2325 3053 1888 3053 
Q 1444 3053 1217 2703 
Q 991 2353 991 1663 
Q 991 975 1217 622 
Q 1444 269 1888 269 
Q 2325 269 2554 583 
Q 2784 897 2784 1497 
L 2784 1825 
z
" transform="scale(0.015625)"/>
       <path id="DejaVuSerif-6c" d="M 1313 331 
L 1856 331 
L 1856 0 
L 184 0 
L 184 331 
L 738 331 
L 738 4531 
L 184 4531 
L 184 4863 
L 1313 4863 
L 1313 331 
z
" transform="scale(0.015625)"/>
       <path id="DejaVuSerif-73" d="M 359 184 
L 359 959 
L 691 959 
Q 703 588 923 403 
Q 1144 219 1575 219 
Q 1963 219 2166 364 
Q 2369 509 2369 788 
Q 2369 1006 2220 1140 
Q 2072 1275 1594 1428 
L 1178 1569 
Q 750 1706 558 1912 
Q 366 2119 366 2438 
Q 366 2894 700 3153 
Q 1034 3413 1625 3413 
Q 1888 3413 2178 3344 
Q 2469 3275 2778 3144 
L 2778 2419 
L 2447 2419 
Q 2434 2741 2221 2922 
Q 2009 3103 1644 3103 
Q 1281 3103 1095 2975 
Q 909 2847 909 2591 
Q 909 2381 1050 2254 
Q 1191 2128 1613 1997 
L 2069 1856 
Q 2541 1709 2748 1489 
Q 2956 1269 2956 922 
Q 2956 450 2595 179 
Q 2234 -91 1600 -91 
Q 1278 -91 972 -22 
Q 666 47 359 184 
z
" transform="scale(0.015625)"/>
       <path id="DejaVuSerif-28" d="M 2041 -997 
Q 1281 -656 893 83 
Q 506 822 506 1931 
Q 506 3044 893 3783 
Q 1281 4522 2041 4863 
L 2041 4556 
Q 1559 4225 1350 3623 
Q 1141 3022 1141 1931 
Q 1141 844 1350 242 
Q 1559 -359 2041 -691 
L 2041 -997 
z
" transform="scale(0.015625)"/>
       <path id="DejaVuSerif-31" d="M 909 0 
L 909 331 
L 1722 331 
L 1722 4213 
L 781 3603 
L 781 4013 
L 1919 4750 
L 2350 4750 
L 2350 331 
L 3163 331 
L 3163 0 
L 909 0 
z
" transform="scale(0.015625)"/>
       <path id="DejaVuSerif-38" d="M 2981 1275 
Q 2981 1775 2732 2051 
Q 2484 2328 2034 2328 
Q 1584 2328 1336 2051 
Q 1088 1775 1088 1275 
Q 1088 772 1336 495 
Q 1584 219 2034 219 
Q 2484 219 2732 495 
Q 2981 772 2981 1275 
z
M 2853 3541 
Q 2853 3966 2637 4203 
Q 2422 4441 2034 4441 
Q 1650 4441 1433 4203 
Q 1216 3966 1216 3541 
Q 1216 3113 1433 2875 
Q 1650 2638 2034 2638 
Q 2422 2638 2637 2875 
Q 2853 3113 2853 3541 
z
M 2516 2484 
Q 3047 2413 3344 2092 
Q 3641 1772 3641 1275 
Q 3641 619 3225 264 
Q 2809 -91 2034 -91 
Q 1263 -91 845 264 
Q 428 619 428 1275 
Q 428 1772 725 2092 
Q 1022 2413 1556 2484 
Q 1084 2569 832 2842 
Q 581 3116 581 3541 
Q 581 4103 968 4426 
Q 1356 4750 2034 4750 
Q 2713 4750 3100 4426 
Q 3488 4103 3488 3541 
Q 3488 3116 3236 2842 
Q 2984 2569 2516 2484 
z
" transform="scale(0.015625)"/>
       <path id="DejaVuSerif-34" d="M 2234 1581 
L 2234 4063 
L 641 1581 
L 2234 1581 
z
M 3609 0 
L 1484 0 
L 1484 331 
L 2234 331 
L 2234 1247 
L 197 1247 
L 197 1588 
L 2241 4750 
L 2859 4750 
L 2859 1581 
L 3750 1581 
L 3750 1247 
L 2859 1247 
L 2859 331 
L 3609 331 
L 3609 0 
z
" transform="scale(0.015625)"/>
       <path id="DejaVuSerif-35" d="M 3219 4666 
L 3219 4153 
L 1081 4153 
L 1081 2816 
Q 1244 2928 1461 2984 
Q 1678 3041 1947 3041 
Q 2703 3041 3140 2622 
Q 3578 2203 3578 1478 
Q 3578 738 3136 323 
Q 2694 -91 1894 -91 
Q 1572 -91 1234 -12 
Q 897 66 544 225 
L 544 1131 
L 897 1131 
Q 925 688 1179 453 
Q 1434 219 1894 219 
Q 2388 219 2653 544 
Q 2919 869 2919 1478 
Q 2919 2084 2655 2407 
Q 2391 2731 1894 2731 
Q 1613 2731 1398 2631 
Q 1184 2531 1019 2322 
L 750 2322 
L 750 4666 
L 3219 4666 
z
" transform="scale(0.015625)"/>
       <path id="DejaVuSerif-29" d="M 453 -997 
L 453 -691 
Q 934 -359 1145 242 
Q 1356 844 1356 1931 
Q 1356 3022 1145 3623 
Q 934 4225 453 4556 
L 453 4863 
Q 1216 4522 1603 3783 
Q 1991 3044 1991 1931 
Q 1991 822 1603 83 
Q 1216 -656 453 -997 
z
" transform="scale(0.015625)"/>
      </defs>
      <use xlink:href="#DejaVuSerif-4e"/>
      <use xlink:href="#DejaVuSerif-61" x="87.5"/>
      <use xlink:href="#DejaVuSerif-72" x="147.119141"/>
      <use xlink:href="#DejaVuSerif-72" x="194.921875"/>
      <use xlink:href="#DejaVuSerif-61" x="242.724609"/>
      <use xlink:href="#DejaVuSerif-74" x="302.34375"/>
      <use xlink:href="#DejaVuSerif-69" x="342.529297"/>
      <use xlink:href="#DejaVuSerif-76" x="374.511719"/>
      <use xlink:href="#DejaVuSerif-65" x="431.005859"/>
      <use xlink:href="#DejaVuSerif-20" x="490.185547"/>
      <use xlink:href="#DejaVuSerif-6f" x="521.972656"/>
      <use xlink:href="#DejaVuSerif-66" x="582.177734"/>
      <use xlink:href="#DejaVuSerif-20" x="619.189453"/>
      <use xlink:href="#DejaVuSerif-74" x="650.976562"/>
      <use xlink:href="#DejaVuSerif-68" x="691.162109"/>
      <use xlink:href="#DejaVuSerif-65" x="755.566406"/>
      <use xlink:href="#DejaVuSerif-20" x="814.746094"/>
      <use xlink:href="#DejaVuSerif-4c" x="846.533203"/>
      <use xlink:href="#DejaVuSerif-69" x="912.939453"/>
      <use xlink:href="#DejaVuSerif-66" x="944.921875"/>
      <use xlink:href="#DejaVuSerif-65" x="981.933594"/>
      <use xlink:href="#DejaVuSerif-20" x="1041.113281"/>
      <use xlink:href="#DejaVuSerif-6f" x="1072.900391"/>
      <use xlink:href="#DejaVuSerif-66" x="1133.105469"/>
      <use xlink:href="#DejaVuSerif-20" x="1170.117188"/>
      <use xlink:href="#DejaVuSerif-46" x="1201.904297"/>
      <use xlink:href="#DejaVuSerif-72" x="1271.289062"/>
      <use xlink:href="#DejaVuSerif-65" x="1319.091797"/>
      <use xlink:href="#DejaVuSerif-64" x="1378.271484"/>
      <use xlink:href="#DejaVuSerif-65" x="1442.285156"/>
      <use xlink:href="#DejaVuSerif-72" x="1501.464844"/>
      <use xlink:href="#DejaVuSerif-69" x="1549.267578"/>
      <use xlink:href="#DejaVuSerif-63" x="1581.25"/>
      <use xlink:href="#DejaVuSerif-6b" x="1637.255859"/>
      <use xlink:href="#DejaVuSerif-20" x="1697.851562"/>
      <use xlink:href="#DejaVuSerif-44" x="1729.638672"/>
      <use xlink:href="#DejaVuSerif-6f" x="1809.814453"/>
      <use xlink:href="#DejaVuSerif-75" x="1870.019531"/>
      <use xlink:href="#DejaVuSerif-67" x="1934.423828"/>
      <use xlink:href="#DejaVuSerif-6c" x="1998.4375"/>
      <use xlink:href="#DejaVuSerif-61" x="2030.419922"/>
      <use xlink:href="#DejaVuSerif-73" x="2090.039062"/>
      <use xlink:href="#DejaVuSerif-73" x="2141.357422"/>
      <use xlink:href="#DejaVuSerif-20" x="2192.675781"/>
      <use xlink:href="#DejaVuSerif-28" x="2224.462891"/>
      <use xlink:href="#DejaVuSerif-31" x="2263.476562"/>
      <use xlink:href="#DejaVuSerif-38" x="2327.099609"/>
      <use xlink:href="#DejaVuSerif-34" x="2390.722656"/>
      <use xlink:href="#DejaVuSerif-35" x="2454.345703"/>
      <use xlink:href="#DejaVuSerif-29" x="2517.96875"/>
     </g>
    </g>
   </g>
   <g id="text_9">
    <g clip-path="url(#p51bf3f3e29)">
     <!-- Notes of a Native Son (Baldwin, 1955) -->
     <g transform="translate(345.403776 197.176222) scale(0.08 -0.08)">
      <defs>
       <path id="DejaVuSerif-53" d="M 594 225 
L 594 1288 
L 953 1284 
Q 969 753 1261 498 
Q 1553 244 2150 244 
Q 2706 244 2998 464 
Q 3291 684 3291 1106 
Q 3291 1444 3114 1625 
Q 2938 1806 2369 1978 
L 1753 2163 
Q 1084 2366 811 2669 
Q 538 2972 538 3500 
Q 538 4094 959 4422 
Q 1381 4750 2144 4750 
Q 2469 4750 2856 4679 
Q 3244 4609 3681 4475 
L 3681 3481 
L 3328 3481 
Q 3275 3975 2998 4195 
Q 2722 4416 2156 4416 
Q 1663 4416 1405 4214 
Q 1147 4013 1147 3628 
Q 1147 3294 1340 3103 
Q 1534 2913 2163 2725 
L 2741 2553 
Q 3375 2363 3645 2067 
Q 3916 1772 3916 1275 
Q 3916 597 3481 253 
Q 3047 -91 2188 -91 
Q 1803 -91 1404 -12 
Q 1006 66 594 225 
z
" transform="scale(0.015625)"/>
       <path id="DejaVuSerif-6e" d="M 263 0 
L 263 331 
L 781 331 
L 781 2988 
L 231 2988 
L 231 3322 
L 1356 3322 
L 1356 2731 
Q 1516 3069 1770 3241 
Q 2025 3413 2363 3413 
Q 2913 3413 3172 3097 
Q 3431 2781 3431 2113 
L 3431 331 
L 3944 331 
L 3944 0 
L 2356 0 
L 2356 331 
L 2853 331 
L 2853 1931 
Q 2853 2541 2703 2767 
Q 2553 2994 2175 2994 
Q 1775 2994 1565 2701 
Q 1356 2409 1356 1850 
L 1356 331 
L 1856 331 
L 1856 0 
L 263 0 
z
" transform="scale(0.015625)"/>
       <path id="DejaVuSerif-42" d="M 1581 331 
L 2516 331 
Q 3078 331 3337 575 
Q 3597 819 3597 1350 
Q 3597 1878 3339 2120 
Q 3081 2363 2516 2363 
L 1581 2363 
L 1581 331 
z
M 1581 2694 
L 2375 2694 
Q 2888 2694 3123 2891 
Q 3359 3088 3359 3513 
Q 3359 3941 3123 4136 
Q 2888 4331 2375 4331 
L 1581 4331 
L 1581 2694 
z
M 353 0 
L 353 331 
L 947 331 
L 947 4331 
L 353 4331 
L 353 4666 
L 2656 4666 
Q 3363 4666 3720 4377 
Q 4078 4088 4078 3513 
Q 4078 3097 3829 2850 
Q 3581 2603 3103 2547 
Q 3697 2472 4005 2167 
Q 4313 1863 4313 1350 
Q 4313 656 3875 328 
Q 3438 0 2509 0 
L 353 0 
z
" transform="scale(0.015625)"/>
       <path id="DejaVuSerif-77" d="M 3072 3322 
L 3922 728 
L 4672 2988 
L 4191 2988 
L 4191 3322 
L 5394 3322 
L 5394 2988 
L 5025 2988 
L 4038 0 
L 3559 0 
L 2741 2484 
L 1919 0 
L 1459 0 
L 475 2988 
L 103 2988 
L 103 3322 
L 1606 3322 
L 1606 2988 
L 1069 2988 
L 1813 728 
L 2669 3322 
L 3072 3322 
z
" transform="scale(0.015625)"/>
       <path id="DejaVuSerif-2c" d="M 231 -622 
Q 525 -406 662 -114 
Q 800 178 800 594 
L 800 709 
L 1416 709 
Q 1391 175 1164 -208 
Q 938 -591 481 -872 
L 231 -622 
z
" transform="scale(0.015625)"/>
       <path id="DejaVuSerif-39" d="M 2994 2091 
Q 2784 1856 2512 1740 
Q 2241 1625 1900 1625 
Q 1206 1625 804 2044 
Q 403 2463 403 3188 
Q 403 3897 839 4323 
Q 1275 4750 2003 4750 
Q 2794 4750 3217 4161 
Q 3641 3572 3641 2478 
Q 3641 1253 3137 581 
Q 2634 -91 1722 -91 
Q 1475 -91 1203 -44 
Q 931 3 647 97 
L 647 872 
L 997 872 
Q 1038 556 1241 387 
Q 1444 219 1784 219 
Q 2391 219 2687 676 
Q 2984 1134 2994 2091 
z
M 1978 4441 
Q 1534 4441 1298 4117 
Q 1063 3794 1063 3188 
Q 1063 2581 1298 2256 
Q 1534 1931 1978 1931 
Q 2422 1931 2658 2245 
Q 2894 2559 2894 3150 
Q 2894 3772 2656 4106 
Q 2419 4441 1978 4441 
z
" transform="scale(0.015625)"/>
      </defs>
      <use xlink:href="#DejaVuSerif-4e"/>
      <use xlink:href="#DejaVuSerif-6f" x="87.5"/>
      <use xlink:href="#DejaVuSerif-74" x="147.705078"/>
      <use xlink:href="#DejaVuSerif-65" x="187.890625"/>
      <use xlink:href="#DejaVuSerif-73" x="247.070312"/>
      <use xlink:href="#DejaVuSerif-20" x="298.388672"/>
      <use xlink:href="#DejaVuSerif-6f" x="330.175781"/>
      <use xlink:href="#DejaVuSerif-66" x="390.380859"/>
      <use xlink:href="#DejaVuSerif-20" x="427.392578"/>
      <use xlink:href="#DejaVuSerif-61" x="459.179688"/>
      <use xlink:href="#DejaVuSerif-20" x="518.798828"/>
      <use xlink:href="#DejaVuSerif-4e" x="550.585938"/>
      <use xlink:href="#DejaVuSerif-61" x="638.085938"/>
      <use xlink:href="#DejaVuSerif-74" x="697.705078"/>
      <use xlink:href="#DejaVuSerif-69" x="737.890625"/>
      <use xlink:href="#DejaVuSerif-76" x="769.873047"/>
      <use xlink:href="#DejaVuSerif-65" x="826.367188"/>
      <use xlink:href="#DejaVuSerif-20" x="885.546875"/>
      <use xlink:href="#DejaVuSerif-53" x="917.333984"/>
      <use xlink:href="#DejaVuSerif-6f" x="985.839844"/>
      <use xlink:href="#DejaVuSerif-6e" x="1046.044922"/>
      <use xlink:href="#DejaVuSerif-20" x="1110.449219"/>
      <use xlink:href="#DejaVuSerif-28" x="1142.236328"/>
      <use xlink:href="#DejaVuSerif-42" x="1181.25"/>
      <use xlink:href="#DejaVuSerif-61" x="1254.736328"/>
      <use xlink:href="#DejaVuSerif-6c" x="1314.355469"/>
      <use xlink:href="#DejaVuSerif-64" x="1346.337891"/>
      <use xlink:href="#DejaVuSerif-77" x="1410.351562"/>
      <use xlink:href="#DejaVuSerif-69" x="1495.947266"/>
      <use xlink:href="#DejaVuSerif-6e" x="1527.929688"/>
      <use xlink:href="#DejaVuSerif-2c" x="1592.333984"/>
      <use xlink:href="#DejaVuSerif-20" x="1624.121094"/>
      <use xlink:href="#DejaVuSerif-31" x="1655.908203"/>
      <use xlink:href="#DejaVuSerif-39" x="1719.53125"/>
      <use xlink:href="#DejaVuSerif-35" x="1783.154297"/>
      <use xlink:href="#DejaVuSerif-35" x="1846.777344"/>
      <use xlink:href="#DejaVuSerif-29" x="1910.400391"/>
     </g>
    </g>
   </g>
   <g id="text_10">
    <g clip-path="url(#p51bf3f3e29)">
     <!-- The Souls of Black Folk (Du Bois, 1903) -->
     <g transform="translate(173.683896 334.630767) scale(0.08 -0.08)">
      <defs>
       <path id="DejaVuSerif-54" d="M 1222 0 
L 1222 331 
L 1819 331 
L 1819 4294 
L 447 4294 
L 447 3566 
L 63 3566 
L 63 4666 
L 4206 4666 
L 4206 3566 
L 3822 3566 
L 3822 4294 
L 2450 4294 
L 2450 331 
L 3047 331 
L 3047 0 
L 1222 0 
z
" transform="scale(0.015625)"/>
       <path id="DejaVuSerif-30" d="M 2034 219 
Q 2513 219 2750 744 
Q 2988 1269 2988 2328 
Q 2988 3391 2750 3916 
Q 2513 4441 2034 4441 
Q 1556 4441 1318 3916 
Q 1081 3391 1081 2328 
Q 1081 1269 1318 744 
Q 1556 219 2034 219 
z
M 2034 -91 
Q 1275 -91 848 546 
Q 422 1184 422 2328 
Q 422 3475 848 4112 
Q 1275 4750 2034 4750 
Q 2797 4750 3222 4112 
Q 3647 3475 3647 2328 
Q 3647 1184 3222 546 
Q 2797 -91 2034 -91 
z
" transform="scale(0.015625)"/>
       <path id="DejaVuSerif-33" d="M 622 4469 
Q 988 4606 1323 4678 
Q 1659 4750 1953 4750 
Q 2638 4750 3022 4454 
Q 3406 4159 3406 3634 
Q 3406 3213 3140 2930 
Q 2875 2647 2388 2547 
Q 2963 2466 3280 2130 
Q 3597 1794 3597 1259 
Q 3597 606 3158 257 
Q 2719 -91 1894 -91 
Q 1528 -91 1179 -12 
Q 831 66 488 225 
L 488 1131 
L 838 1131 
Q 869 681 1141 450 
Q 1413 219 1906 219 
Q 2384 219 2661 495 
Q 2938 772 2938 1253 
Q 2938 1803 2653 2086 
Q 2369 2369 1819 2369 
L 1522 2369 
L 1522 2688 
L 1678 2688 
Q 2225 2688 2498 2914 
Q 2772 3141 2772 3597 
Q 2772 4006 2547 4223 
Q 2322 4441 1900 4441 
Q 1478 4441 1245 4241 
Q 1013 4041 972 3647 
L 622 3647 
L 622 4469 
z
" transform="scale(0.015625)"/>
      </defs>
      <use xlink:href="#DejaVuSerif-54"/>
      <use xlink:href="#DejaVuSerif-68" x="66.699219"/>
      <use xlink:href="#DejaVuSerif-65" x="131.103516"/>
      <use xlink:href="#DejaVuSerif-20" x="190.283203"/>
      <use xlink:href="#DejaVuSerif-53" x="222.070312"/>
      <use xlink:href="#DejaVuSerif-6f" x="290.576172"/>
      <use xlink:href="#DejaVuSerif-75" x="350.78125"/>
      <use xlink:href="#DejaVuSerif-6c" x="415.185547"/>
      <use xlink:href="#DejaVuSerif-73" x="447.167969"/>
      <use xlink:href="#DejaVuSerif-20" x="498.486328"/>
      <use xlink:href="#DejaVuSerif-6f" x="530.273438"/>
      <use xlink:href="#DejaVuSerif-66" x="590.478516"/>
      <use xlink:href="#DejaVuSerif-20" x="627.490234"/>
      <use xlink:href="#DejaVuSerif-42" x="659.277344"/>
      <use xlink:href="#DejaVuSerif-6c" x="732.763672"/>
      <use xlink:href="#DejaVuSerif-61" x="764.746094"/>
      <use xlink:href="#DejaVuSerif-63" x="824.365234"/>
      <use xlink:href="#DejaVuSerif-6b" x="880.371094"/>
      <use xlink:href="#DejaVuSerif-20" x="940.966797"/>
      <use xlink:href="#DejaVuSerif-46" x="972.753906"/>
      <use xlink:href="#DejaVuSerif-6f" x="1036.638672"/>
      <use xlink:href="#DejaVuSerif-6c" x="1096.84375"/>
      <use xlink:href="#DejaVuSerif-6b" x="1128.826172"/>
      <use xlink:href="#DejaVuSerif-20" x="1189.421875"/>
      <use xlink:href="#DejaVuSerif-28" x="1221.208984"/>
      <use xlink:href="#DejaVuSerif-44" x="1260.222656"/>
      <use xlink:href="#DejaVuSerif-75" x="1340.398438"/>
      <use xlink:href="#DejaVuSerif-20" x="1404.802734"/>
      <use xlink:href="#DejaVuSerif-42" x="1436.589844"/>
      <use xlink:href="#DejaVuSerif-6f" x="1510.076172"/>
      <use xlink:href="#DejaVuSerif-69" x="1570.28125"/>
      <use xlink:href="#DejaVuSerif-73" x="1602.263672"/>
      <use xlink:href="#DejaVuSerif-2c" x="1653.582031"/>
      <use xlink:href="#DejaVuSerif-20" x="1685.369141"/>
      <use xlink:href="#DejaVuSerif-31" x="1717.15625"/>
      <use xlink:href="#DejaVuSerif-39" x="1780.779297"/>
      <use xlink:href="#DejaVuSerif-30" x="1844.402344"/>
      <use xlink:href="#DejaVuSerif-33" x="1908.025391"/>
      <use xlink:href="#DejaVuSerif-29" x="1971.648438"/>
     </g>
    </g>
   </g>
   <g id="text_11">
    <g clip-path="url(#p51bf3f3e29)">
     <!-- Beloved (Morrison, 1987) -->
     <g transform="translate(475.606635 105.539858) scale(0.08 -0.08)">
      <defs>
       <path id="DejaVuSerif-4d" d="M 353 0 
L 353 331 
L 947 331 
L 947 4331 
L 319 4331 
L 319 4666 
L 1678 4666 
L 3316 1344 
L 4953 4666 
L 6228 4666 
L 6228 4331 
L 5606 4331 
L 5606 331 
L 6203 331 
L 6203 0 
L 4378 0 
L 4378 331 
L 4972 331 
L 4972 3938 
L 3372 684 
L 2931 684 
L 1331 3938 
L 1331 331 
L 1925 331 
L 1925 0 
L 353 0 
z
" transform="scale(0.015625)"/>
       <path id="DejaVuSerif-37" d="M 3609 4347 
L 1784 0 
L 1319 0 
L 3059 4153 
L 903 4153 
L 903 3578 
L 538 3578 
L 538 4666 
L 3609 4666 
L 3609 4347 
z
" transform="scale(0.015625)"/>
      </defs>
      <use xlink:href="#DejaVuSerif-42"/>
      <use xlink:href="#DejaVuSerif-65" x="73.486328"/>
      <use xlink:href="#DejaVuSerif-6c" x="132.666016"/>
      <use xlink:href="#DejaVuSerif-6f" x="164.648438"/>
      <use xlink:href="#DejaVuSerif-76" x="224.853516"/>
      <use xlink:href="#DejaVuSerif-65" x="281.347656"/>
      <use xlink:href="#DejaVuSerif-64" x="340.527344"/>
      <use xlink:href="#DejaVuSerif-20" x="404.541016"/>
      <use xlink:href="#DejaVuSerif-28" x="436.328125"/>
      <use xlink:href="#DejaVuSerif-4d" x="475.341797"/>
      <use xlink:href="#DejaVuSerif-6f" x="577.734375"/>
      <use xlink:href="#DejaVuSerif-72" x="637.939453"/>
      <use xlink:href="#DejaVuSerif-72" x="685.742188"/>
      <use xlink:href="#DejaVuSerif-69" x="733.544922"/>
      <use xlink:href="#DejaVuSerif-73" x="765.527344"/>
      <use xlink:href="#DejaVuSerif-6f" x="816.845703"/>
      <use xlink:href="#DejaVuSerif-6e" x="877.050781"/>
      <use xlink:href="#DejaVuSerif-2c" x="941.455078"/>
      <use xlink:href="#DejaVuSerif-20" x="973.242188"/>
      <use xlink:href="#DejaVuSerif-31" x="1005.029297"/>
      <use xlink:href="#DejaVuSerif-39" x="1068.652344"/>
      <use xlink:href="#DejaVuSerif-38" x="1132.275391"/>
      <use xlink:href="#DejaVuSerif-37" x="1195.898438"/>
      <use xlink:href="#DejaVuSerif-29" x="1259.521484"/>
     </g>
    </g>
   </g>
   <g id="text_12">
    <g clip-path="url(#p51bf3f3e29)">
     <!-- Harlem Shadows (Claude McKay, 1922) -->
     <g transform="translate(235.261317 288.75571) scale(0.08 -0.08)">
      <defs>
       <path id="DejaVuSerif-48" d="M 353 0 
L 353 331 
L 947 331 
L 947 4331 
L 353 4331 
L 353 4666 
L 2175 4666 
L 2175 4331 
L 1581 4331 
L 1581 2719 
L 4000 2719 
L 4000 4331 
L 3406 4331 
L 3406 4666 
L 5228 4666 
L 5228 4331 
L 4634 4331 
L 4634 331 
L 5228 331 
L 5228 0 
L 3406 0 
L 3406 331 
L 4000 331 
L 4000 2338 
L 1581 2338 
L 1581 331 
L 2175 331 
L 2175 0 
L 353 0 
z
" transform="scale(0.015625)"/>
       <path id="DejaVuSerif-6d" d="M 3316 2675 
Q 3481 3041 3739 3227 
Q 3997 3413 4341 3413 
Q 4863 3413 5119 3089 
Q 5375 2766 5375 2113 
L 5375 331 
L 5894 331 
L 5894 0 
L 4300 0 
L 4300 331 
L 4800 331 
L 4800 2047 
Q 4800 2556 4650 2772 
Q 4500 2988 4153 2988 
Q 3769 2988 3567 2697 
Q 3366 2406 3366 1850 
L 3366 331 
L 3866 331 
L 3866 0 
L 2291 0 
L 2291 331 
L 2791 331 
L 2791 2069 
Q 2791 2566 2641 2777 
Q 2491 2988 2144 2988 
Q 1759 2988 1557 2697 
Q 1356 2406 1356 1850 
L 1356 331 
L 1856 331 
L 1856 0 
L 263 0 
L 263 331 
L 781 331 
L 781 2994 
L 231 2994 
L 231 3322 
L 1356 3322 
L 1356 2731 
Q 1516 3063 1762 3238 
Q 2009 3413 2322 3413 
Q 2709 3413 2968 3220 
Q 3228 3028 3316 2675 
z
" transform="scale(0.015625)"/>
       <path id="DejaVuSerif-43" d="M 4513 1234 
Q 4306 581 3820 245 
Q 3334 -91 2591 -91 
Q 2134 -91 1743 65 
Q 1353 222 1050 525 
Q 700 875 529 1320 
Q 359 1766 359 2328 
Q 359 3416 987 4083 
Q 1616 4750 2644 4750 
Q 3025 4750 3456 4650 
Q 3888 4550 4384 4347 
L 4384 3272 
L 4031 3272 
Q 3916 3859 3567 4137 
Q 3219 4416 2591 4416 
Q 1844 4416 1459 3886 
Q 1075 3356 1075 2328 
Q 1075 1303 1459 773 
Q 1844 244 2591 244 
Q 3113 244 3450 492 
Q 3788 741 3938 1234 
L 4513 1234 
z
" transform="scale(0.015625)"/>
       <path id="DejaVuSerif-4b" d="M 353 0 
L 353 331 
L 947 331 
L 947 4331 
L 353 4331 
L 353 4666 
L 2175 4666 
L 2175 4331 
L 1581 4331 
L 1581 2566 
L 3591 4331 
L 3084 4331 
L 3084 4666 
L 4634 4666 
L 4634 4331 
L 4109 4331 
L 2106 2572 
L 4347 331 
L 4878 331 
L 4878 0 
L 3794 0 
L 1581 2216 
L 1581 331 
L 2175 331 
L 2175 0 
L 353 0 
z
" transform="scale(0.015625)"/>
       <path id="DejaVuSerif-79" d="M 1381 -609 
L 1600 -56 
L 359 2988 
L -19 2988 
L -19 3322 
L 1509 3322 
L 1509 2988 
L 978 2988 
L 1913 703 
L 2847 2988 
L 2350 2988 
L 2350 3322 
L 3597 3322 
L 3597 2988 
L 3225 2988 
L 1703 -750 
Q 1547 -1138 1356 -1280 
Q 1166 -1422 819 -1422 
Q 672 -1422 517 -1397 
Q 363 -1372 206 -1325 
L 206 -691 
L 500 -691 
Q 519 -903 608 -995 
Q 697 -1088 884 -1088 
Q 1056 -1088 1161 -992 
Q 1266 -897 1381 -609 
z
" transform="scale(0.015625)"/>
       <path id="DejaVuSerif-32" d="M 819 3553 
L 469 3553 
L 469 4384 
Q 803 4563 1142 4656 
Q 1481 4750 1806 4750 
Q 2534 4750 2956 4397 
Q 3378 4044 3378 3438 
Q 3378 2753 2422 1800 
Q 2347 1728 2309 1691 
L 1131 513 
L 3078 513 
L 3078 1088 
L 3444 1088 
L 3444 0 
L 434 0 
L 434 341 
L 1850 1753 
Q 2319 2222 2519 2614 
Q 2719 3006 2719 3438 
Q 2719 3909 2473 4175 
Q 2228 4441 1797 4441 
Q 1350 4441 1106 4219 
Q 863 3997 819 3553 
z
" transform="scale(0.015625)"/>
      </defs>
      <use xlink:href="#DejaVuSerif-48"/>
      <use xlink:href="#DejaVuSerif-61" x="87.207031"/>
      <use xlink:href="#DejaVuSerif-72" x="146.826172"/>
      <use xlink:href="#DejaVuSerif-6c" x="194.628906"/>
      <use xlink:href="#DejaVuSerif-65" x="226.611328"/>
      <use xlink:href="#DejaVuSerif-6d" x="285.791016"/>
      <use xlink:href="#DejaVuSerif-20" x="380.615234"/>
      <use xlink:href="#DejaVuSerif-53" x="412.402344"/>
      <use xlink:href="#DejaVuSerif-68" x="480.908203"/>
      <use xlink:href="#DejaVuSerif-61" x="545.3125"/>
      <use xlink:href="#DejaVuSerif-64" x="604.931641"/>
      <use xlink:href="#DejaVuSerif-6f" x="668.945312"/>
      <use xlink:href="#DejaVuSerif-77" x="729.150391"/>
      <use xlink:href="#DejaVuSerif-73" x="814.746094"/>
      <use xlink:href="#DejaVuSerif-20" x="866.064453"/>
      <use xlink:href="#DejaVuSerif-28" x="897.851562"/>
      <use xlink:href="#DejaVuSerif-43" x="936.865234"/>
      <use xlink:href="#DejaVuSerif-6c" x="1013.378906"/>
      <use xlink:href="#DejaVuSerif-61" x="1045.361328"/>
      <use xlink:href="#DejaVuSerif-75" x="1104.980469"/>
      <use xlink:href="#DejaVuSerif-64" x="1169.384766"/>
      <use xlink:href="#DejaVuSerif-65" x="1233.398438"/>
      <use xlink:href="#DejaVuSerif-20" x="1292.578125"/>
      <use xlink:href="#DejaVuSerif-4d" x="1324.365234"/>
      <use xlink:href="#DejaVuSerif-63" x="1426.757812"/>
      <use xlink:href="#DejaVuSerif-4b" x="1482.763672"/>
      <use xlink:href="#DejaVuSerif-61" x="1557.470703"/>
      <use xlink:href="#DejaVuSerif-79" x="1617.089844"/>
      <use xlink:href="#DejaVuSerif-2c" x="1660.333984"/>
      <use xlink:href="#DejaVuSerif-20" x="1692.121094"/>
      <use xlink:href="#DejaVuSerif-31" x="1723.908203"/>
      <use xlink:href="#DejaVuSerif-39" x="1787.53125"/>
      <use xlink:href="#DejaVuSerif-32" x="1851.154297"/>
      <use xlink:href="#DejaVuSerif-32" x="1914.777344"/>
      <use xlink:href="#DejaVuSerif-29" x="1978.400391"/>
     </g>
    </g>
   </g>
   <g id="text_13">
    <g clip-path="url(#p51bf3f3e29)">
     <!-- The Weary Blues (Langston Hughes, 1926) -->
     <g transform="translate(242.069096 242.937528) scale(0.08 -0.08)">
      <defs>
       <path id="DejaVuSerif-57" d="M 4878 0 
L 4366 0 
L 3297 3794 
L 2228 0 
L 1716 0 
L 494 4331 
L 31 4331 
L 31 4666 
L 1734 4666 
L 1734 4331 
L 1153 4331 
L 2125 884 
L 3188 4666 
L 3694 4666 
L 4775 844 
L 5753 4331 
L 5216 4331 
L 5216 4666 
L 6559 4666 
L 6559 4331 
L 6100 4331 
L 4878 0 
z
" transform="scale(0.015625)"/>
       <path id="DejaVuSerif-36" d="M 2094 219 
Q 2534 219 2771 542 
Q 3009 866 3009 1472 
Q 3009 2078 2771 2401 
Q 2534 2725 2094 2725 
Q 1647 2725 1412 2412 
Q 1178 2100 1178 1509 
Q 1178 888 1415 553 
Q 1653 219 2094 219 
z
M 1075 2569 
Q 1288 2803 1556 2918 
Q 1825 3034 2163 3034 
Q 2859 3034 3264 2615 
Q 3669 2197 3669 1472 
Q 3669 763 3233 336 
Q 2797 -91 2069 -91 
Q 1278 -91 853 498 
Q 428 1088 428 2181 
Q 428 3406 931 4078 
Q 1434 4750 2350 4750 
Q 2597 4750 2869 4703 
Q 3141 4656 3425 4563 
L 3425 3794 
L 3072 3794 
Q 3034 4109 2831 4275 
Q 2628 4441 2284 4441 
Q 1678 4441 1381 3981 
Q 1084 3522 1075 2569 
z
" transform="scale(0.015625)"/>
      </defs>
      <use xlink:href="#DejaVuSerif-54"/>
      <use xlink:href="#DejaVuSerif-68" x="66.699219"/>
      <use xlink:href="#DejaVuSerif-65" x="131.103516"/>
      <use xlink:href="#DejaVuSerif-20" x="190.283203"/>
      <use xlink:href="#DejaVuSerif-57" x="222.070312"/>
      <use xlink:href="#DejaVuSerif-65" x="316.728516"/>
      <use xlink:href="#DejaVuSerif-61" x="375.908203"/>
      <use xlink:href="#DejaVuSerif-72" x="435.527344"/>
      <use xlink:href="#DejaVuSerif-79" x="483.330078"/>
      <use xlink:href="#DejaVuSerif-20" x="539.824219"/>
      <use xlink:href="#DejaVuSerif-42" x="571.611328"/>
      <use xlink:href="#DejaVuSerif-6c" x="645.097656"/>
      <use xlink:href="#DejaVuSerif-75" x="677.080078"/>
      <use xlink:href="#DejaVuSerif-65" x="741.484375"/>
      <use xlink:href="#DejaVuSerif-73" x="800.664062"/>
      <use xlink:href="#DejaVuSerif-20" x="851.982422"/>
      <use xlink:href="#DejaVuSerif-28" x="883.769531"/>
      <use xlink:href="#DejaVuSerif-4c" x="922.783203"/>
      <use xlink:href="#DejaVuSerif-61" x="989.189453"/>
      <use xlink:href="#DejaVuSerif-6e" x="1048.808594"/>
      <use xlink:href="#DejaVuSerif-67" x="1113.212891"/>
      <use xlink:href="#DejaVuSerif-73" x="1177.226562"/>
      <use xlink:href="#DejaVuSerif-74" x="1228.544922"/>
      <use xlink:href="#DejaVuSerif-6f" x="1268.730469"/>
      <use xlink:href="#DejaVuSerif-6e" x="1328.935547"/>
      <use xlink:href="#DejaVuSerif-20" x="1393.339844"/>
      <use xlink:href="#DejaVuSerif-48" x="1425.126953"/>
      <use xlink:href="#DejaVuSerif-75" x="1512.333984"/>
      <use xlink:href="#DejaVuSerif-67" x="1576.738281"/>
      <use xlink:href="#DejaVuSerif-68" x="1640.751953"/>
      <use xlink:href="#DejaVuSerif-65" x="1705.15625"/>
      <use xlink:href="#DejaVuSerif-73" x="1764.335938"/>
      <use xlink:href="#DejaVuSerif-2c" x="1815.654297"/>
      <use xlink:href="#DejaVuSerif-20" x="1847.441406"/>
      <use xlink:href="#DejaVuSerif-31" x="1879.228516"/>
      <use xlink:href="#DejaVuSerif-39" x="1942.851562"/>
      <use xlink:href="#DejaVuSerif-32" x="2006.474609"/>
      <use xlink:href="#DejaVuSerif-36" x="2070.097656"/>
      <use xlink:href="#DejaVuSerif-29" x="2133.720703"/>
     </g>
    </g>
   </g>
   <g id="text_14">
    <g clip-path="url(#p51bf3f3e29)">
     <!-- The Fire Next Time (Baldwin, 1963) -->
     <g transform="translate(376.26496 151.35804) scale(0.08 -0.08)">
      <defs>
       <path id="DejaVuSerif-78" d="M 1863 2028 
L 2559 2988 
L 2113 2988 
L 2113 3322 
L 3391 3322 
L 3391 2988 
L 2950 2988 
L 2059 1759 
L 3097 331 
L 3531 331 
L 3531 0 
L 1997 0 
L 1997 331 
L 2419 331 
L 1697 1325 
L 972 331 
L 1403 331 
L 1403 0 
L 141 0 
L 141 331 
L 581 331 
L 1497 1594 
L 488 2988 
L 78 2988 
L 78 3322 
L 1563 3322 
L 1563 2988 
L 1166 2988 
L 1863 2028 
z
" transform="scale(0.015625)"/>
      </defs>
      <use xlink:href="#DejaVuSerif-54"/>
      <use xlink:href="#DejaVuSerif-68" x="66.699219"/>
      <use xlink:href="#DejaVuSerif-65" x="131.103516"/>
      <use xlink:href="#DejaVuSerif-20" x="190.283203"/>
      <use xlink:href="#DejaVuSerif-46" x="222.070312"/>
      <use xlink:href="#DejaVuSerif-69" x="291.455078"/>
      <use xlink:href="#DejaVuSerif-72" x="323.4375"/>
      <use xlink:href="#DejaVuSerif-65" x="371.240234"/>
      <use xlink:href="#DejaVuSerif-20" x="430.419922"/>
      <use xlink:href="#DejaVuSerif-4e" x="462.207031"/>
      <use xlink:href="#DejaVuSerif-65" x="549.707031"/>
      <use xlink:href="#DejaVuSerif-78" x="608.886719"/>
      <use xlink:href="#DejaVuSerif-74" x="665.283203"/>
      <use xlink:href="#DejaVuSerif-20" x="705.46875"/>
      <use xlink:href="#DejaVuSerif-54" x="737.255859"/>
      <use xlink:href="#DejaVuSerif-69" x="803.955078"/>
      <use xlink:href="#DejaVuSerif-6d" x="835.9375"/>
      <use xlink:href="#DejaVuSerif-65" x="930.761719"/>
      <use xlink:href="#DejaVuSerif-20" x="989.941406"/>
      <use xlink:href="#DejaVuSerif-28" x="1021.728516"/>
      <use xlink:href="#DejaVuSerif-42" x="1060.742188"/>
      <use xlink:href="#DejaVuSerif-61" x="1134.228516"/>
      <use xlink:href="#DejaVuSerif-6c" x="1193.847656"/>
      <use xlink:href="#DejaVuSerif-64" x="1225.830078"/>
      <use xlink:href="#DejaVuSerif-77" x="1289.84375"/>
      <use xlink:href="#DejaVuSerif-69" x="1375.439453"/>
      <use xlink:href="#DejaVuSerif-6e" x="1407.421875"/>
      <use xlink:href="#DejaVuSerif-2c" x="1471.826172"/>
      <use xlink:href="#DejaVuSerif-20" x="1503.613281"/>
      <use xlink:href="#DejaVuSerif-31" x="1535.400391"/>
      <use xlink:href="#DejaVuSerif-39" x="1599.023438"/>
      <use xlink:href="#DejaVuSerif-36" x="1662.646484"/>
      <use xlink:href="#DejaVuSerif-33" x="1726.269531"/>
      <use xlink:href="#DejaVuSerif-29" x="1789.892578"/>
     </g>
    </g>
   </g>
   <g id="text_15">
    <g clip-path="url(#p51bf3f3e29)">
     <!-- Between the World and Me (Coates, 2015) -->
     <g transform="translate(532.42609 59.721676) scale(0.08 -0.08)">
      <use xlink:href="#DejaVuSerif-42"/>
      <use xlink:href="#DejaVuSerif-65" x="73.486328"/>
      <use xlink:href="#DejaVuSerif-74" x="132.666016"/>
      <use xlink:href="#DejaVuSerif-77" x="172.851562"/>
      <use xlink:href="#DejaVuSerif-65" x="258.447266"/>
      <use xlink:href="#DejaVuSerif-65" x="317.626953"/>
      <use xlink:href="#DejaVuSerif-6e" x="376.806641"/>
      <use xlink:href="#DejaVuSerif-20" x="441.210938"/>
      <use xlink:href="#DejaVuSerif-74" x="472.998047"/>
      <use xlink:href="#DejaVuSerif-68" x="513.183594"/>
      <use xlink:href="#DejaVuSerif-65" x="577.587891"/>
      <use xlink:href="#DejaVuSerif-20" x="636.767578"/>
      <use xlink:href="#DejaVuSerif-57" x="668.554688"/>
      <use xlink:href="#DejaVuSerif-6f" x="764.587891"/>
      <use xlink:href="#DejaVuSerif-72" x="824.792969"/>
      <use xlink:href="#DejaVuSerif-6c" x="872.595703"/>
      <use xlink:href="#DejaVuSerif-64" x="904.578125"/>
      <use xlink:href="#DejaVuSerif-20" x="968.591797"/>
      <use xlink:href="#DejaVuSerif-61" x="1000.378906"/>
      <use xlink:href="#DejaVuSerif-6e" x="1059.998047"/>
      <use xlink:href="#DejaVuSerif-64" x="1124.402344"/>
      <use xlink:href="#DejaVuSerif-20" x="1188.416016"/>
      <use xlink:href="#DejaVuSerif-4d" x="1220.203125"/>
      <use xlink:href="#DejaVuSerif-65" x="1322.595703"/>
      <use xlink:href="#DejaVuSerif-20" x="1381.775391"/>
      <use xlink:href="#DejaVuSerif-28" x="1413.5625"/>
      <use xlink:href="#DejaVuSerif-43" x="1452.576172"/>
      <use xlink:href="#DejaVuSerif-6f" x="1529.089844"/>
      <use xlink:href="#DejaVuSerif-61" x="1589.294922"/>
      <use xlink:href="#DejaVuSerif-74" x="1648.914062"/>
      <use xlink:href="#DejaVuSerif-65" x="1689.099609"/>
      <use xlink:href="#DejaVuSerif-73" x="1748.279297"/>
      <use xlink:href="#DejaVuSerif-2c" x="1799.597656"/>
      <use xlink:href="#DejaVuSerif-20" x="1831.384766"/>
      <use xlink:href="#DejaVuSerif-32" x="1863.171875"/>
      <use xlink:href="#DejaVuSerif-30" x="1926.794922"/>
      <use xlink:href="#DejaVuSerif-31" x="1990.417969"/>
      <use xlink:href="#DejaVuSerif-35" x="2054.041016"/>
      <use xlink:href="#DejaVuSerif-29" x="2117.664062"/>
     </g>
    </g>
   </g>
   <g id="text_16">
    <!-- Book-Level Intertextual Influence in African American Literature -->
    <g style="fill: #333333" transform="translate(87.728281 17.837812) scale(0.14 -0.14)">
     <defs>
      <path id="DejaVuSans-Bold-42" d="M 2456 2859 
Q 2741 2859 2887 2984 
Q 3034 3109 3034 3353 
Q 3034 3594 2887 3720 
Q 2741 3847 2456 3847 
L 1791 3847 
L 1791 2859 
L 2456 2859 
z
M 2497 819 
Q 2859 819 3042 972 
Q 3225 1125 3225 1434 
Q 3225 1738 3044 1889 
Q 2863 2041 2497 2041 
L 1791 2041 
L 1791 819 
L 2497 819 
z
M 3616 2497 
Q 4003 2384 4215 2081 
Q 4428 1778 4428 1338 
Q 4428 663 3972 331 
Q 3516 0 2584 0 
L 588 0 
L 588 4666 
L 2394 4666 
Q 3366 4666 3802 4372 
Q 4238 4078 4238 3431 
Q 4238 3091 4078 2852 
Q 3919 2613 3616 2497 
z
" transform="scale(0.015625)"/>
      <path id="DejaVuSans-Bold-6f" d="M 2203 2784 
Q 1831 2784 1636 2517 
Q 1441 2250 1441 1747 
Q 1441 1244 1636 976 
Q 1831 709 2203 709 
Q 2569 709 2762 976 
Q 2956 1244 2956 1747 
Q 2956 2250 2762 2517 
Q 2569 2784 2203 2784 
z
M 2203 3584 
Q 3106 3584 3614 3096 
Q 4122 2609 4122 1747 
Q 4122 884 3614 396 
Q 3106 -91 2203 -91 
Q 1297 -91 786 396 
Q 275 884 275 1747 
Q 275 2609 786 3096 
Q 1297 3584 2203 3584 
z
" transform="scale(0.015625)"/>
      <path id="DejaVuSans-Bold-6b" d="M 538 4863 
L 1656 4863 
L 1656 2216 
L 2944 3500 
L 4244 3500 
L 2534 1894 
L 4378 0 
L 3022 0 
L 1656 1459 
L 1656 0 
L 538 0 
L 538 4863 
z
" transform="scale(0.015625)"/>
      <path id="DejaVuSans-Bold-2d" d="M 347 2297 
L 2309 2297 
L 2309 1388 
L 347 1388 
L 347 2297 
z
" transform="scale(0.015625)"/>
      <path id="DejaVuSans-Bold-4c" d="M 588 4666 
L 1791 4666 
L 1791 909 
L 3903 909 
L 3903 0 
L 588 0 
L 588 4666 
z
" transform="scale(0.015625)"/>
      <path id="DejaVuSans-Bold-65" d="M 4031 1759 
L 4031 1441 
L 1416 1441 
Q 1456 1047 1700 850 
Q 1944 653 2381 653 
Q 2734 653 3104 758 
Q 3475 863 3866 1075 
L 3866 213 
Q 3469 63 3072 -14 
Q 2675 -91 2278 -91 
Q 1328 -91 801 392 
Q 275 875 275 1747 
Q 275 2603 792 3093 
Q 1309 3584 2216 3584 
Q 3041 3584 3536 3087 
Q 4031 2591 4031 1759 
z
M 2881 2131 
Q 2881 2450 2695 2645 
Q 2509 2841 2209 2841 
Q 1884 2841 1681 2658 
Q 1478 2475 1428 2131 
L 2881 2131 
z
" transform="scale(0.015625)"/>
      <path id="DejaVuSans-Bold-76" d="M 97 3500 
L 1216 3500 
L 2088 1081 
L 2956 3500 
L 4078 3500 
L 2700 0 
L 1472 0 
L 97 3500 
z
" transform="scale(0.015625)"/>
      <path id="DejaVuSans-Bold-6c" d="M 538 4863 
L 1656 4863 
L 1656 0 
L 538 0 
L 538 4863 
z
" transform="scale(0.015625)"/>
      <path id="DejaVuSans-Bold-20" transform="scale(0.015625)"/>
      <path id="DejaVuSans-Bold-49" d="M 588 4666 
L 1791 4666 
L 1791 0 
L 588 0 
L 588 4666 
z
" transform="scale(0.015625)"/>
      <path id="DejaVuSans-Bold-6e" d="M 4056 2131 
L 4056 0 
L 2931 0 
L 2931 347 
L 2931 1631 
Q 2931 2084 2911 2256 
Q 2891 2428 2841 2509 
Q 2775 2619 2662 2680 
Q 2550 2741 2406 2741 
Q 2056 2741 1856 2470 
Q 1656 2200 1656 1722 
L 1656 0 
L 538 0 
L 538 3500 
L 1656 3500 
L 1656 2988 
Q 1909 3294 2193 3439 
Q 2478 3584 2822 3584 
Q 3428 3584 3742 3212 
Q 4056 2841 4056 2131 
z
" transform="scale(0.015625)"/>
      <path id="DejaVuSans-Bold-74" d="M 1759 4494 
L 1759 3500 
L 2913 3500 
L 2913 2700 
L 1759 2700 
L 1759 1216 
Q 1759 972 1856 886 
Q 1953 800 2241 800 
L 2816 800 
L 2816 0 
L 1856 0 
Q 1194 0 917 276 
Q 641 553 641 1216 
L 641 2700 
L 84 2700 
L 84 3500 
L 641 3500 
L 641 4494 
L 1759 4494 
z
" transform="scale(0.015625)"/>
      <path id="DejaVuSans-Bold-72" d="M 3138 2547 
Q 2991 2616 2845 2648 
Q 2700 2681 2553 2681 
Q 2122 2681 1889 2404 
Q 1656 2128 1656 1613 
L 1656 0 
L 538 0 
L 538 3500 
L 1656 3500 
L 1656 2925 
Q 1872 3269 2151 3426 
Q 2431 3584 2822 3584 
Q 2878 3584 2943 3579 
Q 3009 3575 3134 3559 
L 3138 2547 
z
" transform="scale(0.015625)"/>
      <path id="DejaVuSans-Bold-78" d="M 1422 1791 
L 159 3500 
L 1344 3500 
L 2059 2463 
L 2784 3500 
L 3969 3500 
L 2706 1797 
L 4031 0 
L 2847 0 
L 2059 1106 
L 1281 0 
L 97 0 
L 1422 1791 
z
" transform="scale(0.015625)"/>
      <path id="DejaVuSans-Bold-75" d="M 500 1363 
L 500 3500 
L 1625 3500 
L 1625 3150 
Q 1625 2866 1622 2436 
Q 1619 2006 1619 1863 
Q 1619 1441 1641 1255 
Q 1663 1069 1716 984 
Q 1784 875 1895 815 
Q 2006 756 2150 756 
Q 2500 756 2700 1025 
Q 2900 1294 2900 1772 
L 2900 3500 
L 4019 3500 
L 4019 0 
L 2900 0 
L 2900 506 
Q 2647 200 2364 54 
Q 2081 -91 1741 -91 
Q 1134 -91 817 281 
Q 500 653 500 1363 
z
" transform="scale(0.015625)"/>
      <path id="DejaVuSans-Bold-61" d="M 2106 1575 
Q 1756 1575 1579 1456 
Q 1403 1338 1403 1106 
Q 1403 894 1545 773 
Q 1688 653 1941 653 
Q 2256 653 2472 879 
Q 2688 1106 2688 1447 
L 2688 1575 
L 2106 1575 
z
M 3816 1997 
L 3816 0 
L 2688 0 
L 2688 519 
Q 2463 200 2181 54 
Q 1900 -91 1497 -91 
Q 953 -91 614 226 
Q 275 544 275 1050 
Q 275 1666 698 1953 
Q 1122 2241 2028 2241 
L 2688 2241 
L 2688 2328 
Q 2688 2594 2478 2717 
Q 2269 2841 1825 2841 
Q 1466 2841 1156 2769 
Q 847 2697 581 2553 
L 581 3406 
Q 941 3494 1303 3539 
Q 1666 3584 2028 3584 
Q 2975 3584 3395 3211 
Q 3816 2838 3816 1997 
z
" transform="scale(0.015625)"/>
      <path id="DejaVuSans-Bold-66" d="M 2841 4863 
L 2841 4128 
L 2222 4128 
Q 1984 4128 1890 4042 
Q 1797 3956 1797 3744 
L 1797 3500 
L 2753 3500 
L 2753 2700 
L 1797 2700 
L 1797 0 
L 678 0 
L 678 2700 
L 122 2700 
L 122 3500 
L 678 3500 
L 678 3744 
Q 678 4316 997 4589 
Q 1316 4863 1984 4863 
L 2841 4863 
z
" transform="scale(0.015625)"/>
      <path id="DejaVuSans-Bold-63" d="M 3366 3391 
L 3366 2478 
Q 3138 2634 2908 2709 
Q 2678 2784 2431 2784 
Q 1963 2784 1702 2511 
Q 1441 2238 1441 1747 
Q 1441 1256 1702 982 
Q 1963 709 2431 709 
Q 2694 709 2930 787 
Q 3166 866 3366 1019 
L 3366 103 
Q 3103 6 2833 -42 
Q 2563 -91 2291 -91 
Q 1344 -91 809 395 
Q 275 881 275 1747 
Q 275 2613 809 3098 
Q 1344 3584 2291 3584 
Q 2566 3584 2833 3536 
Q 3100 3488 3366 3391 
z
" transform="scale(0.015625)"/>
      <path id="DejaVuSans-Bold-69" d="M 538 3500 
L 1656 3500 
L 1656 0 
L 538 0 
L 538 3500 
z
M 538 4863 
L 1656 4863 
L 1656 3950 
L 538 3950 
L 538 4863 
z
" transform="scale(0.015625)"/>
      <path id="DejaVuSans-Bold-41" d="M 3419 850 
L 1538 850 
L 1241 0 
L 31 0 
L 1759 4666 
L 3194 4666 
L 4922 0 
L 3713 0 
L 3419 850 
z
M 1838 1716 
L 3116 1716 
L 2478 3572 
L 1838 1716 
z
" transform="scale(0.015625)"/>
      <path id="DejaVuSans-Bold-6d" d="M 3781 2919 
Q 3994 3244 4286 3414 
Q 4578 3584 4928 3584 
Q 5531 3584 5847 3212 
Q 6163 2841 6163 2131 
L 6163 0 
L 5038 0 
L 5038 1825 
Q 5041 1866 5042 1909 
Q 5044 1953 5044 2034 
Q 5044 2406 4934 2573 
Q 4825 2741 4581 2741 
Q 4263 2741 4089 2478 
Q 3916 2216 3909 1719 
L 3909 0 
L 2784 0 
L 2784 1825 
Q 2784 2406 2684 2573 
Q 2584 2741 2328 2741 
Q 2006 2741 1831 2477 
Q 1656 2213 1656 1722 
L 1656 0 
L 531 0 
L 531 3500 
L 1656 3500 
L 1656 2988 
Q 1863 3284 2130 3434 
Q 2397 3584 2719 3584 
Q 3081 3584 3359 3409 
Q 3638 3234 3781 2919 
z
" transform="scale(0.015625)"/>
     </defs>
     <use xlink:href="#DejaVuSans-Bold-42"/>
     <use xlink:href="#DejaVuSans-Bold-6f" x="76.220703"/>
     <use xlink:href="#DejaVuSans-Bold-6f" x="144.921875"/>
     <use xlink:href="#DejaVuSans-Bold-6b" x="213.623047"/>
     <use xlink:href="#DejaVuSans-Bold-2d" x="280.126953"/>
     <use xlink:href="#DejaVuSans-Bold-4c" x="321.630859"/>
     <use xlink:href="#DejaVuSans-Bold-65" x="385.351562"/>
     <use xlink:href="#DejaVuSans-Bold-76" x="453.173828"/>
     <use xlink:href="#DejaVuSans-Bold-65" x="518.359375"/>
     <use xlink:href="#DejaVuSans-Bold-6c" x="586.181641"/>
     <use xlink:href="#DejaVuSans-Bold-20" x="620.458984"/>
     <use xlink:href="#DejaVuSans-Bold-49" x="655.273438"/>
     <use xlink:href="#DejaVuSans-Bold-6e" x="692.480469"/>
     <use xlink:href="#DejaVuSans-Bold-74" x="763.671875"/>
     <use xlink:href="#DejaVuSans-Bold-65" x="811.474609"/>
     <use xlink:href="#DejaVuSans-Bold-72" x="879.296875"/>
     <use xlink:href="#DejaVuSans-Bold-74" x="928.613281"/>
     <use xlink:href="#DejaVuSans-Bold-65" x="976.416016"/>
     <use xlink:href="#DejaVuSans-Bold-78" x="1044.238281"/>
     <use xlink:href="#DejaVuSans-Bold-74" x="1108.740234"/>
     <use xlink:href="#DejaVuSans-Bold-75" x="1156.542969"/>
     <use xlink:href="#DejaVuSans-Bold-61" x="1227.734375"/>
     <use xlink:href="#DejaVuSans-Bold-6c" x="1295.214844"/>
     <use xlink:href="#DejaVuSans-Bold-20" x="1329.492188"/>
     <use xlink:href="#DejaVuSans-Bold-49" x="1364.306641"/>
     <use xlink:href="#DejaVuSans-Bold-6e" x="1401.513672"/>
     <use xlink:href="#DejaVuSans-Bold-66" x="1472.705078"/>
     <use xlink:href="#DejaVuSans-Bold-6c" x="1516.210938"/>
     <use xlink:href="#DejaVuSans-Bold-75" x="1550.488281"/>
     <use xlink:href="#DejaVuSans-Bold-65" x="1621.679688"/>
     <use xlink:href="#DejaVuSans-Bold-6e" x="1689.501953"/>
     <use xlink:href="#DejaVuSans-Bold-63" x="1760.693359"/>
     <use xlink:href="#DejaVuSans-Bold-65" x="1819.970703"/>
     <use xlink:href="#DejaVuSans-Bold-20" x="1887.792969"/>
     <use xlink:href="#DejaVuSans-Bold-69" x="1922.607422"/>
     <use xlink:href="#DejaVuSans-Bold-6e" x="1956.884766"/>
     <use xlink:href="#DejaVuSans-Bold-20" x="2028.076172"/>
     <use xlink:href="#DejaVuSans-Bold-41" x="2062.890625"/>
     <use xlink:href="#DejaVuSans-Bold-66" x="2140.283203"/>
     <use xlink:href="#DejaVuSans-Bold-72" x="2183.789062"/>
     <use xlink:href="#DejaVuSans-Bold-69" x="2233.105469"/>
     <use xlink:href="#DejaVuSans-Bold-63" x="2267.382812"/>
     <use xlink:href="#DejaVuSans-Bold-61" x="2326.660156"/>
     <use xlink:href="#DejaVuSans-Bold-6e" x="2394.140625"/>
     <use xlink:href="#DejaVuSans-Bold-20" x="2465.332031"/>
     <use xlink:href="#DejaVuSans-Bold-41" x="2500.146484"/>
     <use xlink:href="#DejaVuSans-Bold-6d" x="2577.539062"/>
     <use xlink:href="#DejaVuSans-Bold-65" x="2681.738281"/>
     <use xlink:href="#DejaVuSans-Bold-72" x="2749.560547"/>
     <use xlink:href="#DejaVuSans-Bold-69" x="2798.876953"/>
     <use xlink:href="#DejaVuSans-Bold-63" x="2833.154297"/>
     <use xlink:href="#DejaVuSans-Bold-61" x="2892.431641"/>
     <use xlink:href="#DejaVuSans-Bold-6e" x="2959.912109"/>
     <use xlink:href="#DejaVuSans-Bold-20" x="3031.103516"/>
     <use xlink:href="#DejaVuSans-Bold-4c" x="3065.917969"/>
     <use xlink:href="#DejaVuSans-Bold-69" x="3129.638672"/>
     <use xlink:href="#DejaVuSans-Bold-74" x="3163.916016"/>
     <use xlink:href="#DejaVuSans-Bold-65" x="3211.71875"/>
     <use xlink:href="#DejaVuSans-Bold-72" x="3279.541016"/>
     <use xlink:href="#DejaVuSans-Bold-61" x="3328.857422"/>
     <use xlink:href="#DejaVuSans-Bold-74" x="3396.337891"/>
     <use xlink:href="#DejaVuSans-Bold-75" x="3444.140625"/>
     <use xlink:href="#DejaVuSans-Bold-72" x="3515.332031"/>
     <use xlink:href="#DejaVuSans-Bold-65" x="3564.648438"/>
    </g>
   </g>
  </g>
 </g>
 <defs>
  <clipPath id="p51bf3f3e29">
   <rect x="7.2" y="23.837812" width="669.6" height="388.08"/>
  </clipPath>
 </defs>
</svg>
